%TF.GenerationSoftware,KiCad,Pcbnew,10.0.5-1.fc44*%
%TF.CreationDate,2026-08-07T17:31:11+02:00*%
%TF.ProjectId,evereader,65766572-6561-4646-9572-2e6b69636164,rev?*%
%TF.SameCoordinates,Original*%
%TF.FileFunction,Copper,L2,Bot*%
%TF.FilePolarity,Positive*%
%FSLAX46Y46*%
G04 Gerber Fmt 4.6, Leading zero omitted, Abs format (unit mm)*
G04 Created by KiCad (PCBNEW 10.0.5-1.fc44) date 2026-08-07 17:31:11*
%MOMM*%
%LPD*%
G01*
G04 APERTURE LIST*
G04 Aperture macros list*
%AMRoundRect*
0 Rectangle with rounded corners*
0 $1 Rounding radius*
0 $2 $3 $4 $5 $6 $7 $8 $9 X,Y pos of 4 corners*
0 Add a 4 corners polygon primitive as box body*
4,1,4,$2,$3,$4,$5,$6,$7,$8,$9,$2,$3,0*
0 Add four circle primitives for the rounded corners*
1,1,$1+$1,$2,$3*
1,1,$1+$1,$4,$5*
1,1,$1+$1,$6,$7*
1,1,$1+$1,$8,$9*
0 Add four rect primitives between the rounded corners*
20,1,$1+$1,$2,$3,$4,$5,0*
20,1,$1+$1,$4,$5,$6,$7,0*
20,1,$1+$1,$6,$7,$8,$9,0*
20,1,$1+$1,$8,$9,$2,$3,0*%
G04 Aperture macros list end*
%TA.AperFunction,ComponentPad*%
%ADD10R,1.700000X1.700000*%
%TD*%
%TA.AperFunction,ComponentPad*%
%ADD11C,1.700000*%
%TD*%
%TA.AperFunction,HeatsinkPad*%
%ADD12C,0.500000*%
%TD*%
%TA.AperFunction,HeatsinkPad*%
%ADD13R,1.900000X2.900000*%
%TD*%
%TA.AperFunction,ComponentPad*%
%ADD14O,1.000000X2.100000*%
%TD*%
%TA.AperFunction,ComponentPad*%
%ADD15O,1.000000X1.600000*%
%TD*%
%TA.AperFunction,HeatsinkPad*%
%ADD16C,0.600000*%
%TD*%
%TA.AperFunction,SMDPad,CuDef*%
%ADD17RoundRect,0.250000X0.525000X0.400000X-0.525000X0.400000X-0.525000X-0.400000X0.525000X-0.400000X0*%
%TD*%
%TA.AperFunction,ViaPad*%
%ADD18C,0.800000*%
%TD*%
%TA.AperFunction,ViaPad*%
%ADD19C,0.600000*%
%TD*%
%TA.AperFunction,Conductor*%
%ADD20C,0.500000*%
%TD*%
%TA.AperFunction,Conductor*%
%ADD21C,0.200000*%
%TD*%
G04 APERTURE END LIST*
D10*
%TO.P,B-   B+,1,Pin_1_1*%
%TO.N,Net-(J8-Pin_2)*%
X138260000Y-123490000D03*
D11*
%TO.P,B-   B+,2,Pin_2_2*%
%TO.N,Net-(J8-Pin_1)*%
X140800000Y-123490000D03*
%TD*%
D10*
%TO.P,L_SCREEN,1,Pin_1_1*%
%TO.N,Net-(J4-Pin_1)*%
X132300000Y-70760000D03*
D11*
%TO.P,L_SCREEN,2,Pin_2_2*%
%TO.N,Net-(J4-Pin_2)*%
X134840000Y-70760000D03*
%TO.P,L_SCREEN,3,Pin_3_3*%
%TO.N,Net-(J4-Pin_3)*%
X132300000Y-73300000D03*
%TO.P,L_SCREEN,4,Pin_4_4*%
%TO.N,Net-(J4-Pin_4)*%
X134840000Y-73300000D03*
%TO.P,L_SCREEN,5,Pin_5_5*%
%TO.N,Net-(J4-Pin_5)*%
X132300000Y-75840000D03*
%TO.P,L_SCREEN,6,Pin_6_6*%
%TO.N,Net-(J4-Pin_6)*%
X134840000Y-75840000D03*
%TO.P,L_SCREEN,7,Pin_7_7*%
%TO.N,Net-(J4-Pin_7)*%
X132300000Y-78380000D03*
%TO.P,L_SCREEN,8,Pin_8_8*%
%TO.N,Net-(J4-Pin_8)*%
X134840000Y-78380000D03*
%TD*%
D12*
%TO.P,U1,9,EPAD_9*%
%TO.N,GND*%
X49921471Y-144770000D03*
X49921471Y-143570000D03*
X49921471Y-142370000D03*
D13*
X49221471Y-143570000D03*
D12*
X48521471Y-144770000D03*
X48521471Y-143570000D03*
X48521471Y-142370000D03*
%TD*%
D14*
%TO.P,J1,SH,SHIELD_SH*%
%TO.N,Net-(J1-SHIELD)*%
X76841471Y-152390000D03*
D15*
X76841471Y-156570000D03*
D14*
X85481471Y-152390000D03*
D15*
X85481471Y-156570000D03*
%TD*%
D16*
%TO.P,U5,41,GND_41*%
%TO.N,GND*%
X78216627Y-43807918D03*
X78216627Y-45207918D03*
X78916627Y-43107918D03*
X78916627Y-44507918D03*
X78916627Y-45907918D03*
X79616627Y-43807918D03*
X79616627Y-45207918D03*
X80316627Y-43107918D03*
X80316627Y-44507918D03*
X80316627Y-45907918D03*
X81016627Y-43807918D03*
X81016627Y-45207918D03*
%TD*%
D17*
%TO.P,SW2,1,1_1*%
%TO.N,Net-(U5-IO1)*%
X62141471Y-132770000D03*
X54181471Y-132770000D03*
%TO.P,SW2,2,2_2*%
%TO.N,GND*%
X62141471Y-137270000D03*
X54181471Y-137270000D03*
%TD*%
%TO.P,SW1,1,1_1*%
%TO.N,Net-(U5-IO2)*%
X85141471Y-132770000D03*
X77181471Y-132770000D03*
%TO.P,SW1,2,2_2*%
%TO.N,GND*%
X85141471Y-137270000D03*
X77181471Y-137270000D03*
%TD*%
%TO.P,SW3,1,1_1*%
%TO.N,Net-(U5-IO21)*%
X108141471Y-132770000D03*
X100181471Y-132770000D03*
%TO.P,SW3,2,2_2*%
%TO.N,GND*%
X108141471Y-137270000D03*
X100181471Y-137270000D03*
%TD*%
D10*
%TO.P,R_SCREEN,1,Pin_1_1*%
%TO.N,Net-(J3-Pin_1)*%
X124241471Y-70760000D03*
D11*
%TO.P,R_SCREEN,2,Pin_2_2*%
%TO.N,Net-(J3-Pin_2)*%
X121701471Y-70760000D03*
%TO.P,R_SCREEN,3,Pin_3_3*%
%TO.N,Net-(J3-Pin_3)*%
X124241471Y-73300000D03*
%TO.P,R_SCREEN,4,Pin_4_4*%
%TO.N,Net-(J3-Pin_4)*%
X121701471Y-73300000D03*
%TO.P,R_SCREEN,5,Pin_5_5*%
%TO.N,Net-(J3-Pin_5)*%
X124241471Y-75840000D03*
%TO.P,R_SCREEN,6,Pin_6_6*%
%TO.N,Net-(J3-Pin_6)*%
X121701471Y-75840000D03*
%TO.P,R_SCREEN,7,Pin_7_7*%
%TO.N,GND*%
X124241471Y-78380000D03*
%TO.P,R_SCREEN,8,Pin_8_8*%
%TO.N,+3.3V*%
X121701471Y-78380000D03*
%TD*%
D18*
%TO.N,Net-(U2-VCC)*%
X83551471Y-134630000D03*
X59300000Y-143720000D03*
%TO.N,Net-(J5-Pin_1)*%
X67570000Y-138000000D03*
X83561471Y-136340000D03*
X59241471Y-145710000D03*
D19*
%TO.N,Net-(J7-Pin_1)*%
X66091471Y-49540000D03*
X70631471Y-56320000D03*
%TO.N,Net-(J7-Pin_2)*%
X64981471Y-45680000D03*
X72481471Y-56970000D03*
%TO.N,Net-(J7-Pin_3)*%
X68301471Y-50780000D03*
X73641471Y-56710000D03*
%TO.N,Net-(J7-Pin_4)*%
X75141471Y-56730000D03*
X75141471Y-44630000D03*
%TO.N,Net-(J3-Pin_5)*%
X80681471Y-57480000D03*
%TO.N,Net-(J3-Pin_6)*%
X79331471Y-57620000D03*
D18*
%TO.N,GND*%
X55921471Y-144160000D03*
X56981471Y-80170000D03*
D19*
X66500000Y-148760000D03*
D18*
X57811471Y-128320000D03*
D19*
X119120000Y-71110000D03*
D18*
X57011471Y-84530000D03*
X94351747Y-137310276D03*
X60961471Y-86920000D03*
D19*
X109610000Y-62340000D03*
D18*
X84911471Y-127870000D03*
D19*
X120220000Y-65710000D03*
D18*
X55641471Y-140150000D03*
D19*
X66500000Y-146640000D03*
X73111471Y-82551471D03*
D18*
X124131471Y-86300000D03*
X92161471Y-46970000D03*
D19*
X77510000Y-140120000D03*
D18*
X63571471Y-151630000D03*
X124791471Y-91090000D03*
%TO.N,+3.3V*%
X123161471Y-91520000D03*
D19*
X107930000Y-126490000D03*
D18*
X80211471Y-78420000D03*
X82711471Y-124470000D03*
X86661471Y-78420000D03*
X98561471Y-78370000D03*
X92261471Y-48170000D03*
X63921471Y-38130000D03*
X73961471Y-38270000D03*
X80171471Y-124470000D03*
X66821471Y-57320000D03*
X120061471Y-88420000D03*
D19*
%TO.N,Net-(D1-A)*%
X62011471Y-149570000D03*
X78711471Y-149570000D03*
%TO.N,Net-(J2-DET)*%
X64441471Y-74610000D03*
X66632207Y-69470736D03*
X86691471Y-56730000D03*
%TO.N,Net-(U1-PROG)*%
X56881471Y-152740000D03*
X54261471Y-144220000D03*
%TO.N,/MOSI*%
X62591471Y-80220000D03*
X83031471Y-61510000D03*
%TO.N,Net-(U5-IO2)*%
X110861471Y-98420000D03*
X85161471Y-130570000D03*
X110861471Y-77220000D03*
D18*
%TO.N,Net-(J5-Pin_2)*%
X82640000Y-133470000D03*
X78750000Y-133670000D03*
D19*
%TO.N,Net-(U5-IO1)*%
X112161471Y-76620000D03*
X64511471Y-132270000D03*
%TO.N,Net-(J2-DAT0)*%
X66111471Y-72820000D03*
X62651471Y-45700000D03*
X62581471Y-75750000D03*
%TO.N,Net-(U5-IO21)*%
X110511471Y-131620000D03*
X109911471Y-123620000D03*
X109911471Y-77220000D03*
%TO.N,Net-(J3-Pin_1)*%
X75330000Y-40597918D03*
%TO.N,Net-(J3-Pin_2)*%
X75380000Y-41880000D03*
%TO.N,Net-(J3-Pin_3)*%
X99141471Y-72020000D03*
%TO.N,Net-(J3-Pin_4)*%
X98121471Y-73260000D03*
%TD*%
%TO.N,Net-(U2-VCC)*%
D20*
X59931471Y-143720000D02*
X69021471Y-134630000D01*
X83551471Y-134630000D02*
X69021471Y-134630000D01*
X59300000Y-143720000D02*
X59931471Y-143720000D01*
%TO.N,Net-(J5-Pin_1)*%
X59461471Y-144930000D02*
X60661471Y-144930000D01*
X59241471Y-145150000D02*
X59461471Y-144930000D01*
X83561471Y-136340000D02*
X82711471Y-135490000D01*
X59241471Y-145710000D02*
X59241471Y-145150000D01*
X82711471Y-135490000D02*
X70080000Y-135490000D01*
X60661471Y-144908529D02*
X67570000Y-138000000D01*
X60661471Y-144930000D02*
X60661471Y-144908529D01*
X70080000Y-135490000D02*
X67570000Y-138000000D01*
%TO.N,Net-(J7-Pin_1)*%
D21*
X69481471Y-56320000D02*
X66091471Y-52930000D01*
X70631471Y-56320000D02*
X69481471Y-56320000D01*
X66091471Y-52930000D02*
X66091471Y-49540000D01*
%TO.N,Net-(J7-Pin_2)*%
X68831471Y-56970000D02*
X64981471Y-53120000D01*
X64981471Y-53120000D02*
X64981471Y-45680000D01*
X72481471Y-56970000D02*
X68831471Y-56970000D01*
%TO.N,Net-(J7-Pin_3)*%
X68301471Y-53350000D02*
X68301471Y-50780000D01*
X70181471Y-55230000D02*
X68301471Y-53350000D01*
X73641471Y-56710000D02*
X72161471Y-55230000D01*
X72161471Y-55230000D02*
X70181471Y-55230000D01*
%TO.N,Net-(J7-Pin_4)*%
X75141471Y-56730000D02*
X75141471Y-44630000D01*
%TO.N,Net-(J3-Pin_5)*%
X97841471Y-74640000D02*
X80681471Y-57480000D01*
X80601471Y-57400000D02*
X80681471Y-57480000D01*
X97841471Y-74690000D02*
X123091471Y-74690000D01*
X123091471Y-74690000D02*
X124241471Y-75840000D01*
X97841471Y-74690000D02*
X97841471Y-74640000D01*
%TO.N,Net-(J3-Pin_6)*%
X83631471Y-61758529D02*
X83631471Y-61261471D01*
X121701471Y-75840000D02*
X97271471Y-75840000D01*
X97271471Y-75840000D02*
X83410735Y-61979264D01*
X79791471Y-58080000D02*
X79331471Y-57620000D01*
X83631471Y-61261471D02*
X80450000Y-58080000D01*
X80450000Y-58080000D02*
X79791471Y-58080000D01*
X83410735Y-61979264D02*
X83631471Y-61758529D01*
%TO.N,GND*%
D20*
X55921471Y-145310000D02*
X55921471Y-150410000D01*
X94311471Y-137270000D02*
X86911471Y-137270000D01*
X56709593Y-128320000D02*
X52956471Y-132073122D01*
X77181471Y-137270000D02*
X85141471Y-137270000D01*
X54181471Y-137270000D02*
X62141471Y-137270000D01*
X125541471Y-69511471D02*
X121740000Y-65710000D01*
X73111471Y-82551471D02*
X73100000Y-82540000D01*
X86911471Y-137270000D02*
X85141471Y-137270000D01*
X94351747Y-137310276D02*
X94311471Y-137270000D01*
X69661471Y-86920000D02*
X60961471Y-86920000D01*
X77181471Y-137270000D02*
X77181471Y-139791471D01*
X57811471Y-128320000D02*
X56709593Y-128320000D01*
X110350000Y-62340000D02*
X119120000Y-71110000D01*
X100181471Y-137270000D02*
X94392023Y-137270000D01*
X55921471Y-144160000D02*
X55921471Y-145310000D01*
X56541471Y-140150000D02*
X56921471Y-140530000D01*
X56921471Y-144310000D02*
X55921471Y-145310000D01*
X125541471Y-77080000D02*
X125541471Y-69511471D01*
X121740000Y-65710000D02*
X120220000Y-65710000D01*
X73111471Y-83470000D02*
X69661471Y-86920000D01*
X56921471Y-140530000D02*
X56921471Y-144310000D01*
X124791471Y-86960000D02*
X124131471Y-86300000D01*
X86911471Y-129870000D02*
X86911471Y-137270000D01*
X58521471Y-137270000D02*
X55641471Y-140150000D01*
X55921471Y-150410000D02*
X57141471Y-151630000D01*
X57011471Y-80200000D02*
X56981471Y-80170000D01*
X77181471Y-139791471D02*
X77510000Y-140120000D01*
X66500000Y-146640000D02*
X66500000Y-148760000D01*
X109610000Y-62340000D02*
X110350000Y-62340000D01*
X82778709Y-46970000D02*
X81016627Y-45207918D01*
X92161471Y-46970000D02*
X82778709Y-46970000D01*
X52956471Y-132073122D02*
X52956471Y-136045000D01*
X55641471Y-140150000D02*
X56541471Y-140150000D01*
X52956471Y-136045000D02*
X54181471Y-137270000D01*
X57011471Y-84530000D02*
X57011471Y-80200000D01*
X73111471Y-83470000D02*
X73111471Y-82551471D01*
X94392023Y-137270000D02*
X94351747Y-137310276D01*
X124791471Y-91090000D02*
X124791471Y-86960000D01*
X57141471Y-151630000D02*
X63571471Y-151630000D01*
X84911471Y-127870000D02*
X86911471Y-129870000D01*
X124241471Y-78380000D02*
X125541471Y-77080000D01*
X108141471Y-137270000D02*
X100181471Y-137270000D01*
X62141471Y-137270000D02*
X58521471Y-137270000D01*
%TO.N,+3.3V*%
X80171471Y-124470000D02*
X82711471Y-124470000D01*
X66821471Y-57320000D02*
X63921471Y-54420000D01*
X92261471Y-48170000D02*
X79911471Y-48170000D01*
X82713553Y-124470000D02*
X82711471Y-124470000D01*
X107930000Y-126490000D02*
X106450000Y-127970000D01*
X86661471Y-78420000D02*
X98511471Y-78420000D01*
X80211471Y-78420000D02*
X86661471Y-78420000D01*
X106450000Y-127970000D02*
X86211471Y-127970000D01*
X73961471Y-42220000D02*
X73961471Y-38270000D01*
X79911471Y-48170000D02*
X73961471Y-42220000D01*
X123161471Y-91520000D02*
X120061471Y-88420000D01*
X86211471Y-127970000D02*
X86211471Y-127967918D01*
X63921471Y-54420000D02*
X63921471Y-38130000D01*
X98511471Y-78420000D02*
X98561471Y-78370000D01*
X86211471Y-127967918D02*
X82713553Y-124470000D01*
%TO.N,Net-(J1-SHIELD)*%
D21*
X85481471Y-156570000D02*
X85481471Y-152390000D01*
X76841471Y-156570000D02*
X76841471Y-152390000D01*
%TO.N,Net-(D1-A)*%
X62011471Y-149570000D02*
X78711471Y-149570000D01*
%TO.N,Net-(J2-DET)*%
X64441471Y-74610000D02*
X64441471Y-71661471D01*
X66632207Y-69470736D02*
X79372942Y-56730000D01*
X64441471Y-71661471D02*
X66632207Y-69470736D01*
X79372942Y-56730000D02*
X86691471Y-56730000D01*
%TO.N,Net-(U1-PROG)*%
X54261471Y-144900000D02*
X54271471Y-144910000D01*
X54261471Y-144220000D02*
X54261471Y-144900000D01*
X54271471Y-151290000D02*
X55721471Y-152740000D01*
X54271471Y-144910000D02*
X54271471Y-151290000D01*
X55721471Y-152740000D02*
X56881471Y-152740000D01*
%TO.N,/MOSI*%
X64631471Y-79910000D02*
X64321471Y-80220000D01*
X83031471Y-61510000D02*
X64631471Y-79910000D01*
X64321471Y-80220000D02*
X62591471Y-80220000D01*
%TO.N,Net-(U5-IO2)*%
X85141471Y-132770000D02*
X77181471Y-132770000D01*
X85141471Y-132770000D02*
X85141471Y-130590000D01*
X110861471Y-98420000D02*
X110861471Y-77320000D01*
X85141471Y-130590000D02*
X85161471Y-130570000D01*
%TO.N,Net-(J5-Pin_2)*%
D20*
X82440000Y-133670000D02*
X78750000Y-133670000D01*
X82640000Y-133470000D02*
X82440000Y-133670000D01*
%TO.N,Net-(U5-IO1)*%
D21*
X109061471Y-77221471D02*
X109061471Y-105070000D01*
X62141471Y-132770000D02*
X64011471Y-132770000D01*
X109061471Y-105070000D02*
X90411471Y-123720000D01*
X109662942Y-76620000D02*
X109061471Y-77221471D01*
X90411471Y-123720000D02*
X79931521Y-123720000D01*
X54181471Y-132770000D02*
X62141471Y-132770000D01*
X112161471Y-76620000D02*
X109662942Y-76620000D01*
X64011471Y-132770000D02*
X64511471Y-132270000D01*
X78611471Y-131120000D02*
X65661471Y-131120000D01*
X78611471Y-125040050D02*
X78611471Y-131120000D01*
X65661471Y-131120000D02*
X64511471Y-132270000D01*
X79931521Y-123720000D02*
X78611471Y-125040050D01*
%TO.N,Net-(J2-DAT0)*%
X64150000Y-75750000D02*
X62581471Y-75750000D01*
X62581471Y-75750000D02*
X62581471Y-45770000D01*
X66111471Y-73788529D02*
X64150000Y-75750000D01*
X66111471Y-72820000D02*
X66111471Y-73788529D01*
X62581471Y-45770000D02*
X62651471Y-45700000D01*
%TO.N,Net-(U5-IO21)*%
X108141471Y-132770000D02*
X100181471Y-132770000D01*
X109911471Y-123620000D02*
X109911471Y-77220000D01*
X108141471Y-132770000D02*
X109361471Y-132770000D01*
X109361471Y-132770000D02*
X110511471Y-131620000D01*
%TO.N,Net-(J3-Pin_1)*%
X94079389Y-40597918D02*
X75330000Y-40597918D01*
X124241471Y-70760000D02*
X94079389Y-40597918D01*
%TO.N,Net-(J3-Pin_2)*%
X75392082Y-41867918D02*
X75380000Y-41880000D01*
X121701471Y-70760000D02*
X92809389Y-41867918D01*
X92809389Y-41867918D02*
X75392082Y-41867918D01*
%TO.N,Net-(J3-Pin_3)*%
X124241471Y-73300000D02*
X122961471Y-72020000D01*
X122961471Y-72020000D02*
X99141471Y-72020000D01*
%TO.N,Net-(J3-Pin_4)*%
X98161471Y-73300000D02*
X98121471Y-73260000D01*
X121701471Y-73300000D02*
X98161471Y-73300000D01*
%TD*%
%TA.AperFunction,Conductor*%
%TO.N,GND*%
G36*
X125545941Y-28849916D02*
G01*
X125612965Y-28869646D01*
X125658685Y-28922480D01*
X125669856Y-28974059D01*
X125623156Y-69435235D01*
X125603394Y-69502252D01*
X125550537Y-69547946D01*
X125481367Y-69557809D01*
X125424845Y-69534359D01*
X125333801Y-69466203D01*
X125333799Y-69466202D01*
X125198953Y-69415908D01*
X125198954Y-69415908D01*
X125139354Y-69409501D01*
X125139352Y-69409500D01*
X125139344Y-69409500D01*
X125139336Y-69409500D01*
X123791568Y-69409500D01*
X123724529Y-69389815D01*
X123703887Y-69373181D01*
X94566979Y-40236273D01*
X94566977Y-40236270D01*
X94448106Y-40117399D01*
X94448105Y-40117398D01*
X94361293Y-40067278D01*
X94361293Y-40067277D01*
X94361289Y-40067276D01*
X94311174Y-40038341D01*
X94158446Y-39997417D01*
X94000332Y-39997417D01*
X93992736Y-39997417D01*
X93992720Y-39997418D01*
X75909766Y-39997418D01*
X75842727Y-39977733D01*
X75840875Y-39976520D01*
X75709185Y-39888527D01*
X75709172Y-39888520D01*
X75563501Y-39828182D01*
X75563489Y-39828179D01*
X75408845Y-39797418D01*
X75408842Y-39797418D01*
X75251158Y-39797418D01*
X75251155Y-39797418D01*
X75096510Y-39828179D01*
X75096498Y-39828182D01*
X74950827Y-39888520D01*
X74950814Y-39888527D01*
X74904862Y-39919232D01*
X74838184Y-39940110D01*
X74770804Y-39921625D01*
X74724114Y-39869646D01*
X74711971Y-39816130D01*
X74711971Y-38805269D01*
X74731656Y-38738230D01*
X74732869Y-38736378D01*
X74759484Y-38696547D01*
X74827365Y-38532666D01*
X74861971Y-38358691D01*
X74861971Y-38181309D01*
X74861971Y-38181306D01*
X74861970Y-38181304D01*
X74827367Y-38007341D01*
X74827364Y-38007332D01*
X74759487Y-37843459D01*
X74759480Y-37843446D01*
X74660935Y-37695965D01*
X74660932Y-37695961D01*
X74535509Y-37570538D01*
X74535505Y-37570535D01*
X74388024Y-37471990D01*
X74388011Y-37471983D01*
X74224138Y-37404106D01*
X74224129Y-37404103D01*
X74050165Y-37369500D01*
X74050162Y-37369500D01*
X73872780Y-37369500D01*
X73872777Y-37369500D01*
X73698812Y-37404103D01*
X73698803Y-37404106D01*
X73534930Y-37471983D01*
X73534917Y-37471990D01*
X73387436Y-37570535D01*
X73387432Y-37570538D01*
X73262009Y-37695961D01*
X73262006Y-37695965D01*
X73163461Y-37843446D01*
X73163454Y-37843459D01*
X73095577Y-38007332D01*
X73095574Y-38007341D01*
X73060971Y-38181304D01*
X73060971Y-38358695D01*
X73095574Y-38532658D01*
X73095577Y-38532667D01*
X73163455Y-38696542D01*
X73163456Y-38696543D01*
X73163458Y-38696547D01*
X73190073Y-38736378D01*
X73210951Y-38803055D01*
X73210971Y-38805269D01*
X73210971Y-42293918D01*
X73210971Y-42293920D01*
X73210970Y-42293920D01*
X73239811Y-42438907D01*
X73239814Y-42438917D01*
X73296383Y-42575488D01*
X73296389Y-42575499D01*
X73305671Y-42589389D01*
X73305673Y-42589394D01*
X73378517Y-42698414D01*
X73378523Y-42698421D01*
X74572066Y-43891963D01*
X74605551Y-43953286D01*
X74600567Y-44022978D01*
X74572067Y-44067324D01*
X74519685Y-44119706D01*
X74519681Y-44119711D01*
X74432080Y-44250814D01*
X74432073Y-44250827D01*
X74371735Y-44396498D01*
X74371732Y-44396510D01*
X74340971Y-44551153D01*
X74340971Y-44708846D01*
X74371732Y-44863489D01*
X74371735Y-44863501D01*
X74432073Y-45009172D01*
X74432080Y-45009185D01*
X74520073Y-45140874D01*
X74540951Y-45207551D01*
X74540971Y-45209765D01*
X74540971Y-56150234D01*
X74521286Y-56217273D01*
X74520071Y-56219127D01*
X74501252Y-56247290D01*
X74447639Y-56292094D01*
X74378314Y-56300800D01*
X74315287Y-56270643D01*
X74295050Y-56247287D01*
X74263263Y-56199715D01*
X74263257Y-56199707D01*
X74151763Y-56088213D01*
X74151759Y-56088210D01*
X74020656Y-56000609D01*
X74020643Y-56000602D01*
X73874972Y-55940264D01*
X73874962Y-55940261D01*
X73719620Y-55909361D01*
X73657709Y-55876976D01*
X73656131Y-55875425D01*
X72649061Y-54868355D01*
X72649059Y-54868352D01*
X72530188Y-54749481D01*
X72530187Y-54749480D01*
X72443375Y-54699360D01*
X72443375Y-54699359D01*
X72443371Y-54699358D01*
X72393256Y-54670423D01*
X72240528Y-54629499D01*
X72082414Y-54629499D01*
X72074818Y-54629499D01*
X72074802Y-54629500D01*
X70481568Y-54629500D01*
X70414529Y-54609815D01*
X70393887Y-54593181D01*
X68938290Y-53137584D01*
X68904805Y-53076261D01*
X68901971Y-53049903D01*
X68901971Y-51359765D01*
X68921656Y-51292726D01*
X68922869Y-51290874D01*
X69010861Y-51159185D01*
X69010861Y-51159184D01*
X69010865Y-51159179D01*
X69071208Y-51013497D01*
X69101971Y-50858842D01*
X69101971Y-50701158D01*
X69101971Y-50701155D01*
X69101970Y-50701153D01*
X69071209Y-50546510D01*
X69071208Y-50546503D01*
X69071206Y-50546498D01*
X69010868Y-50400827D01*
X69010861Y-50400814D01*
X68923260Y-50269711D01*
X68923257Y-50269707D01*
X68811763Y-50158213D01*
X68811759Y-50158210D01*
X68680656Y-50070609D01*
X68680643Y-50070602D01*
X68534972Y-50010264D01*
X68534960Y-50010261D01*
X68380316Y-49979500D01*
X68380313Y-49979500D01*
X68222629Y-49979500D01*
X68222626Y-49979500D01*
X68067981Y-50010261D01*
X68067969Y-50010264D01*
X67922298Y-50070602D01*
X67922285Y-50070609D01*
X67791182Y-50158210D01*
X67791178Y-50158213D01*
X67679684Y-50269707D01*
X67679681Y-50269711D01*
X67592080Y-50400814D01*
X67592073Y-50400827D01*
X67531735Y-50546498D01*
X67531732Y-50546510D01*
X67500971Y-50701153D01*
X67500971Y-50858846D01*
X67531732Y-51013489D01*
X67531735Y-51013501D01*
X67592073Y-51159172D01*
X67592080Y-51159185D01*
X67680073Y-51290874D01*
X67700951Y-51357551D01*
X67700971Y-51359765D01*
X67700971Y-53263330D01*
X67700970Y-53263348D01*
X67700970Y-53390902D01*
X67681285Y-53457941D01*
X67628481Y-53503696D01*
X67559323Y-53513640D01*
X67495767Y-53484615D01*
X67489289Y-53478583D01*
X66728290Y-52717584D01*
X66694805Y-52656261D01*
X66691971Y-52629903D01*
X66691971Y-50119765D01*
X66711656Y-50052726D01*
X66712869Y-50050874D01*
X66740005Y-50010263D01*
X66800865Y-49919179D01*
X66861208Y-49773497D01*
X66891971Y-49618842D01*
X66891971Y-49461158D01*
X66891971Y-49461155D01*
X66891970Y-49461153D01*
X66861209Y-49306510D01*
X66861208Y-49306503D01*
X66861206Y-49306498D01*
X66800868Y-49160827D01*
X66800861Y-49160814D01*
X66713260Y-49029711D01*
X66713257Y-49029707D01*
X66601763Y-48918213D01*
X66601759Y-48918210D01*
X66470656Y-48830609D01*
X66470643Y-48830602D01*
X66324972Y-48770264D01*
X66324960Y-48770261D01*
X66170316Y-48739500D01*
X66170313Y-48739500D01*
X66012629Y-48739500D01*
X66012626Y-48739500D01*
X65857981Y-48770261D01*
X65857978Y-48770262D01*
X65857977Y-48770262D01*
X65857974Y-48770263D01*
X65780902Y-48802187D01*
X65753423Y-48813569D01*
X65683953Y-48821037D01*
X65621474Y-48789761D01*
X65585822Y-48729672D01*
X65581971Y-48699007D01*
X65581971Y-46259765D01*
X65601656Y-46192726D01*
X65602869Y-46190874D01*
X65690861Y-46059185D01*
X65690861Y-46059184D01*
X65690865Y-46059179D01*
X65751208Y-45913497D01*
X65781971Y-45758842D01*
X65781971Y-45601158D01*
X65781971Y-45601155D01*
X65781970Y-45601153D01*
X65751208Y-45446503D01*
X65699152Y-45320827D01*
X65690868Y-45300827D01*
X65690861Y-45300814D01*
X65603260Y-45169711D01*
X65603257Y-45169707D01*
X65491763Y-45058213D01*
X65491759Y-45058210D01*
X65360656Y-44970609D01*
X65360643Y-44970602D01*
X65214972Y-44910264D01*
X65214960Y-44910261D01*
X65060316Y-44879500D01*
X65060313Y-44879500D01*
X64902629Y-44879500D01*
X64902624Y-44879500D01*
X64820162Y-44895903D01*
X64750571Y-44889676D01*
X64695393Y-44846813D01*
X64672149Y-44780923D01*
X64671971Y-44774286D01*
X64671971Y-38665269D01*
X64691656Y-38598230D01*
X64692869Y-38596378D01*
X64719484Y-38556547D01*
X64787365Y-38392666D01*
X64794123Y-38358695D01*
X64821970Y-38218695D01*
X64821971Y-38218693D01*
X64821971Y-38041306D01*
X64821970Y-38041304D01*
X64787367Y-37867341D01*
X64787364Y-37867332D01*
X64719487Y-37703459D01*
X64719480Y-37703446D01*
X64620935Y-37555965D01*
X64620932Y-37555961D01*
X64495509Y-37430538D01*
X64495505Y-37430535D01*
X64348024Y-37331990D01*
X64348011Y-37331983D01*
X64184138Y-37264106D01*
X64184129Y-37264103D01*
X64010165Y-37229500D01*
X64010162Y-37229500D01*
X63832780Y-37229500D01*
X63832777Y-37229500D01*
X63658812Y-37264103D01*
X63658803Y-37264106D01*
X63494930Y-37331983D01*
X63494917Y-37331990D01*
X63347436Y-37430535D01*
X63347432Y-37430538D01*
X63222009Y-37555961D01*
X63222006Y-37555965D01*
X63123461Y-37703446D01*
X63123454Y-37703459D01*
X63055577Y-37867332D01*
X63055574Y-37867341D01*
X63020971Y-38041304D01*
X63020971Y-38218695D01*
X63055574Y-38392658D01*
X63055577Y-38392667D01*
X63123455Y-38556542D01*
X63123456Y-38556543D01*
X63123458Y-38556547D01*
X63150073Y-38596378D01*
X63170951Y-38663055D01*
X63170971Y-38665269D01*
X63170971Y-44863149D01*
X63151286Y-44930188D01*
X63098482Y-44975943D01*
X63029324Y-44985887D01*
X62999519Y-44977711D01*
X62980298Y-44969750D01*
X62884968Y-44930263D01*
X62884963Y-44930262D01*
X62884960Y-44930261D01*
X62730316Y-44899500D01*
X62730313Y-44899500D01*
X62572629Y-44899500D01*
X62572626Y-44899500D01*
X62417981Y-44930261D01*
X62417969Y-44930264D01*
X62272298Y-44990602D01*
X62272285Y-44990609D01*
X62141182Y-45078210D01*
X62141178Y-45078213D01*
X62029684Y-45189707D01*
X62029681Y-45189711D01*
X61942080Y-45320814D01*
X61942073Y-45320827D01*
X61881735Y-45466498D01*
X61881732Y-45466510D01*
X61850971Y-45621153D01*
X61850971Y-45778846D01*
X61881732Y-45933489D01*
X61881735Y-45933501D01*
X61942074Y-46079174D01*
X61942075Y-46079175D01*
X61942077Y-46079179D01*
X61960073Y-46106111D01*
X61980951Y-46172788D01*
X61980971Y-46175002D01*
X61980971Y-75170234D01*
X61961286Y-75237273D01*
X61960073Y-75239125D01*
X61872080Y-75370814D01*
X61872073Y-75370827D01*
X61811735Y-75516498D01*
X61811732Y-75516510D01*
X61780971Y-75671153D01*
X61780971Y-75828846D01*
X61811732Y-75983489D01*
X61811735Y-75983501D01*
X61872073Y-76129172D01*
X61872080Y-76129185D01*
X61959681Y-76260288D01*
X61959684Y-76260292D01*
X62071178Y-76371786D01*
X62071182Y-76371789D01*
X62202285Y-76459390D01*
X62202298Y-76459397D01*
X62332653Y-76513391D01*
X62347974Y-76519737D01*
X62489126Y-76547814D01*
X62502624Y-76550499D01*
X62502627Y-76550500D01*
X62502629Y-76550500D01*
X62660315Y-76550500D01*
X62660316Y-76550499D01*
X62814968Y-76519737D01*
X62931513Y-76471463D01*
X62960643Y-76459397D01*
X62960643Y-76459396D01*
X62960650Y-76459394D01*
X62972156Y-76451706D01*
X63092346Y-76371398D01*
X63159024Y-76350520D01*
X63161237Y-76350500D01*
X64063331Y-76350500D01*
X64063347Y-76350501D01*
X64070943Y-76350501D01*
X64229054Y-76350501D01*
X64229057Y-76350501D01*
X64381785Y-76309577D01*
X64431904Y-76280639D01*
X64518716Y-76230520D01*
X64630520Y-76118716D01*
X64630520Y-76118714D01*
X64640728Y-76108507D01*
X64640730Y-76108504D01*
X66469977Y-74279257D01*
X66469982Y-74279253D01*
X66480185Y-74269049D01*
X66480187Y-74269049D01*
X66591991Y-74157245D01*
X66647846Y-74060500D01*
X66671048Y-74020314D01*
X66711972Y-73867586D01*
X66711972Y-73709472D01*
X66711972Y-73701877D01*
X66711971Y-73701859D01*
X66711971Y-73399765D01*
X66731656Y-73332726D01*
X66732869Y-73330874D01*
X66820861Y-73199185D01*
X66820861Y-73199184D01*
X66820865Y-73199179D01*
X66828330Y-73181158D01*
X66853375Y-73120692D01*
X66881208Y-73053497D01*
X66911971Y-72898842D01*
X66911971Y-72741158D01*
X66911971Y-72741155D01*
X66911970Y-72741153D01*
X66903685Y-72699500D01*
X66881208Y-72586503D01*
X66881206Y-72586498D01*
X66820868Y-72440827D01*
X66820861Y-72440814D01*
X66733260Y-72309711D01*
X66733257Y-72309707D01*
X66621763Y-72198213D01*
X66621759Y-72198210D01*
X66490656Y-72110609D01*
X66490643Y-72110602D01*
X66344972Y-72050264D01*
X66344960Y-72050261D01*
X66190316Y-72019500D01*
X66190313Y-72019500D01*
X66032629Y-72019500D01*
X66032626Y-72019500D01*
X65877981Y-72050261D01*
X65877969Y-72050264D01*
X65732298Y-72110602D01*
X65732285Y-72110609D01*
X65601182Y-72198210D01*
X65601178Y-72198213D01*
X65489684Y-72309707D01*
X65489681Y-72309711D01*
X65402080Y-72440814D01*
X65402073Y-72440827D01*
X65341735Y-72586498D01*
X65341732Y-72586510D01*
X65310971Y-72741153D01*
X65310971Y-72898846D01*
X65341732Y-73053489D01*
X65341735Y-73053501D01*
X65402073Y-73199172D01*
X65402080Y-73199185D01*
X65490073Y-73330874D01*
X65510951Y-73397551D01*
X65510971Y-73399765D01*
X65510971Y-73488432D01*
X65491286Y-73555471D01*
X65474652Y-73576113D01*
X65253652Y-73797113D01*
X65192329Y-73830598D01*
X65122637Y-73825614D01*
X65066704Y-73783742D01*
X65042287Y-73718278D01*
X65041971Y-73709432D01*
X65041971Y-71961568D01*
X65061656Y-71894529D01*
X65078290Y-71873887D01*
X65771228Y-71180949D01*
X66646869Y-70305308D01*
X66708190Y-70271825D01*
X66710357Y-70271374D01*
X66768292Y-70259849D01*
X66865704Y-70240473D01*
X67011386Y-70180130D01*
X67142496Y-70092525D01*
X67253996Y-69981025D01*
X67341601Y-69849915D01*
X67401944Y-69704233D01*
X67432707Y-69549578D01*
X67432845Y-69548885D01*
X67465230Y-69486974D01*
X67466725Y-69485451D01*
X78682809Y-58269367D01*
X78744130Y-58235884D01*
X78813822Y-58240868D01*
X78839379Y-58253948D01*
X78952285Y-58329390D01*
X78952298Y-58329397D01*
X79097969Y-58389735D01*
X79097974Y-58389737D01*
X79210906Y-58412200D01*
X79253317Y-58420637D01*
X79315228Y-58453022D01*
X79316807Y-58454572D01*
X79422755Y-58560520D01*
X79509566Y-58610639D01*
X79509568Y-58610641D01*
X79559684Y-58639576D01*
X79559686Y-58639577D01*
X79712413Y-58680500D01*
X79712414Y-58680500D01*
X80149903Y-58680500D01*
X80216942Y-58700185D01*
X80237584Y-58716819D01*
X82382101Y-60861336D01*
X82415586Y-60922659D01*
X82410602Y-60992351D01*
X82397522Y-61017907D01*
X82322083Y-61130809D01*
X82322073Y-61130827D01*
X82261735Y-61276498D01*
X82261732Y-61276508D01*
X82230833Y-61431848D01*
X82198448Y-61493759D01*
X82196897Y-61495337D01*
X64262755Y-79429481D01*
X64109055Y-79583181D01*
X64047732Y-79616666D01*
X64021374Y-79619500D01*
X63171237Y-79619500D01*
X63104198Y-79599815D01*
X63102346Y-79598602D01*
X62970656Y-79510609D01*
X62970643Y-79510602D01*
X62824972Y-79450264D01*
X62824960Y-79450261D01*
X62670316Y-79419500D01*
X62670313Y-79419500D01*
X62512629Y-79419500D01*
X62512626Y-79419500D01*
X62357981Y-79450261D01*
X62357969Y-79450264D01*
X62212298Y-79510602D01*
X62212285Y-79510609D01*
X62081182Y-79598210D01*
X62081178Y-79598213D01*
X61969684Y-79709707D01*
X61969681Y-79709711D01*
X61882080Y-79840814D01*
X61882073Y-79840827D01*
X61821735Y-79986498D01*
X61821732Y-79986510D01*
X61790971Y-80141153D01*
X61790971Y-80298846D01*
X61821732Y-80453489D01*
X61821735Y-80453501D01*
X61882073Y-80599172D01*
X61882080Y-80599185D01*
X61969681Y-80730288D01*
X61969684Y-80730292D01*
X62081178Y-80841786D01*
X62081182Y-80841789D01*
X62212285Y-80929390D01*
X62212298Y-80929397D01*
X62357969Y-80989735D01*
X62357974Y-80989737D01*
X62512624Y-81020499D01*
X62512627Y-81020500D01*
X62512629Y-81020500D01*
X62670315Y-81020500D01*
X62670316Y-81020499D01*
X62824968Y-80989737D01*
X62970650Y-80929394D01*
X62970656Y-80929390D01*
X63102346Y-80841398D01*
X63169024Y-80820520D01*
X63171237Y-80820500D01*
X64234802Y-80820500D01*
X64234818Y-80820501D01*
X64242414Y-80820501D01*
X64400525Y-80820501D01*
X64400528Y-80820501D01*
X64553256Y-80779577D01*
X64603375Y-80750639D01*
X64690187Y-80700520D01*
X64801991Y-80588716D01*
X64801992Y-80588713D01*
X65111990Y-80278716D01*
X65111989Y-80278716D01*
X65170558Y-80220147D01*
X65170557Y-80220147D01*
X67059400Y-78331304D01*
X79310971Y-78331304D01*
X79310971Y-78508695D01*
X79345574Y-78682658D01*
X79345577Y-78682667D01*
X79413454Y-78846540D01*
X79413461Y-78846553D01*
X79512006Y-78994034D01*
X79512009Y-78994038D01*
X79637432Y-79119461D01*
X79637436Y-79119464D01*
X79784917Y-79218009D01*
X79784930Y-79218016D01*
X79907834Y-79268923D01*
X79948805Y-79285894D01*
X79948807Y-79285894D01*
X79948812Y-79285896D01*
X80122775Y-79320499D01*
X80122778Y-79320500D01*
X80122780Y-79320500D01*
X80300164Y-79320500D01*
X80300165Y-79320499D01*
X80358153Y-79308964D01*
X80474129Y-79285896D01*
X80474132Y-79285894D01*
X80474137Y-79285894D01*
X80638018Y-79218013D01*
X80638021Y-79218010D01*
X80638023Y-79218010D01*
X80677849Y-79191399D01*
X80744526Y-79170520D01*
X80746741Y-79170500D01*
X86126201Y-79170500D01*
X86193240Y-79190185D01*
X86195093Y-79191399D01*
X86234918Y-79218010D01*
X86234921Y-79218011D01*
X86234924Y-79218013D01*
X86398805Y-79285894D01*
X86398807Y-79285894D01*
X86398812Y-79285896D01*
X86572775Y-79320499D01*
X86572778Y-79320500D01*
X86572780Y-79320500D01*
X86750164Y-79320500D01*
X86750165Y-79320499D01*
X86808153Y-79308964D01*
X86924129Y-79285896D01*
X86924132Y-79285894D01*
X86924137Y-79285894D01*
X87088018Y-79218013D01*
X87088021Y-79218010D01*
X87088023Y-79218010D01*
X87127849Y-79191399D01*
X87194526Y-79170520D01*
X87196741Y-79170500D01*
X98116264Y-79170500D01*
X98163716Y-79179939D01*
X98298805Y-79235894D01*
X98298807Y-79235894D01*
X98298812Y-79235896D01*
X98472775Y-79270499D01*
X98472778Y-79270500D01*
X98472780Y-79270500D01*
X98650164Y-79270500D01*
X98650165Y-79270499D01*
X98708153Y-79258964D01*
X98824129Y-79235896D01*
X98824132Y-79235894D01*
X98824137Y-79235894D01*
X98988018Y-79168013D01*
X99135506Y-79069464D01*
X99260935Y-78944035D01*
X99359484Y-78796547D01*
X99427365Y-78632666D01*
X99461971Y-78458691D01*
X99461971Y-78281309D01*
X99461971Y-78281306D01*
X99461970Y-78281304D01*
X99427367Y-78107341D01*
X99427364Y-78107332D01*
X99359487Y-77943459D01*
X99359480Y-77943446D01*
X99260935Y-77795965D01*
X99260932Y-77795961D01*
X99135509Y-77670538D01*
X99135505Y-77670535D01*
X98988024Y-77571990D01*
X98988011Y-77571983D01*
X98824138Y-77504106D01*
X98824129Y-77504103D01*
X98650165Y-77469500D01*
X98650162Y-77469500D01*
X98472780Y-77469500D01*
X98472777Y-77469500D01*
X98298812Y-77504103D01*
X98298803Y-77504106D01*
X98134923Y-77571987D01*
X98134921Y-77571988D01*
X98020262Y-77648602D01*
X97953585Y-77669480D01*
X97951371Y-77669500D01*
X87196741Y-77669500D01*
X87129702Y-77649815D01*
X87127849Y-77648601D01*
X87088023Y-77621989D01*
X87088018Y-77621987D01*
X86924138Y-77554106D01*
X86924129Y-77554103D01*
X86750165Y-77519500D01*
X86750162Y-77519500D01*
X86572780Y-77519500D01*
X86572777Y-77519500D01*
X86398812Y-77554103D01*
X86398803Y-77554106D01*
X86234923Y-77621987D01*
X86234918Y-77621989D01*
X86195093Y-77648601D01*
X86128416Y-77669480D01*
X86126201Y-77669500D01*
X80746741Y-77669500D01*
X80679702Y-77649815D01*
X80677849Y-77648601D01*
X80638023Y-77621989D01*
X80638018Y-77621987D01*
X80474138Y-77554106D01*
X80474129Y-77554103D01*
X80300165Y-77519500D01*
X80300162Y-77519500D01*
X80122780Y-77519500D01*
X80122777Y-77519500D01*
X79948812Y-77554103D01*
X79948803Y-77554106D01*
X79784930Y-77621983D01*
X79784917Y-77621990D01*
X79637436Y-77720535D01*
X79637432Y-77720538D01*
X79512009Y-77845961D01*
X79512006Y-77845965D01*
X79413461Y-77993446D01*
X79413454Y-77993459D01*
X79345577Y-78157332D01*
X79345574Y-78157341D01*
X79310971Y-78331304D01*
X67059400Y-78331304D01*
X82898793Y-62491912D01*
X82960112Y-62458430D01*
X83029804Y-62463414D01*
X83074151Y-62491915D01*
X96786610Y-76204374D01*
X96786620Y-76204385D01*
X96790950Y-76208715D01*
X96790951Y-76208716D01*
X96902755Y-76320520D01*
X96954685Y-76350501D01*
X96989566Y-76370639D01*
X96989568Y-76370641D01*
X97027622Y-76392611D01*
X97039686Y-76399577D01*
X97192414Y-76440501D01*
X97192417Y-76440501D01*
X97358124Y-76440501D01*
X97358140Y-76440500D01*
X108693844Y-76440500D01*
X108760883Y-76460185D01*
X108806638Y-76512989D01*
X108816582Y-76582147D01*
X108787557Y-76645703D01*
X108781525Y-76652181D01*
X108692757Y-76740949D01*
X108692755Y-76740951D01*
X108636853Y-76796852D01*
X108580952Y-76852753D01*
X108580520Y-76853501D01*
X108570935Y-76870104D01*
X108501894Y-76989686D01*
X108460970Y-77142414D01*
X108460970Y-77142416D01*
X108460970Y-77310517D01*
X108460971Y-77310530D01*
X108460971Y-104769903D01*
X108441286Y-104836942D01*
X108424652Y-104857584D01*
X90199055Y-123083181D01*
X90137732Y-123116666D01*
X90111374Y-123119500D01*
X80018191Y-123119500D01*
X80018175Y-123119499D01*
X80010579Y-123119499D01*
X79852464Y-123119499D01*
X79776100Y-123139961D01*
X79699735Y-123160423D01*
X79699730Y-123160426D01*
X79562811Y-123239475D01*
X79562803Y-123239481D01*
X78130952Y-124671332D01*
X78130950Y-124671335D01*
X78080832Y-124758144D01*
X78080830Y-124758146D01*
X78051896Y-124808259D01*
X78051895Y-124808260D01*
X78051894Y-124808265D01*
X78010970Y-124960993D01*
X78010970Y-124960995D01*
X78010970Y-125129096D01*
X78010971Y-125129109D01*
X78010971Y-130395500D01*
X77991286Y-130462539D01*
X77938482Y-130508294D01*
X77886971Y-130519500D01*
X65748141Y-130519500D01*
X65748125Y-130519499D01*
X65740529Y-130519499D01*
X65582414Y-130519499D01*
X65506050Y-130539961D01*
X65429685Y-130560423D01*
X65429680Y-130560426D01*
X65292761Y-130639475D01*
X65292753Y-130639481D01*
X64496810Y-131435425D01*
X64435487Y-131468910D01*
X64433321Y-131469361D01*
X64277979Y-131500261D01*
X64277969Y-131500264D01*
X64132298Y-131560602D01*
X64132285Y-131560609D01*
X64001182Y-131648210D01*
X64001178Y-131648213D01*
X63889684Y-131759707D01*
X63889681Y-131759711D01*
X63802080Y-131890814D01*
X63802073Y-131890827D01*
X63741735Y-132036498D01*
X63741732Y-132036510D01*
X63735132Y-132069691D01*
X63702747Y-132131602D01*
X63642032Y-132166176D01*
X63613515Y-132169500D01*
X63480204Y-132169500D01*
X63413165Y-132149815D01*
X63367410Y-132097011D01*
X63362499Y-132084506D01*
X63357589Y-132069691D01*
X63351285Y-132050666D01*
X63259183Y-131901344D01*
X63135127Y-131777288D01*
X63007952Y-131698846D01*
X62985807Y-131685187D01*
X62985802Y-131685185D01*
X62968866Y-131679573D01*
X62819268Y-131630001D01*
X62819266Y-131630000D01*
X62716481Y-131619500D01*
X61566469Y-131619500D01*
X61566452Y-131619501D01*
X61463674Y-131630000D01*
X61463671Y-131630001D01*
X61297139Y-131685185D01*
X61297134Y-131685187D01*
X61147813Y-131777289D01*
X61023760Y-131901342D01*
X60931658Y-132050663D01*
X60931655Y-132050671D01*
X60920443Y-132084506D01*
X60880670Y-132141950D01*
X60816154Y-132168772D01*
X60802738Y-132169500D01*
X55520204Y-132169500D01*
X55453165Y-132149815D01*
X55407410Y-132097011D01*
X55402499Y-132084506D01*
X55397589Y-132069691D01*
X55391285Y-132050666D01*
X55299183Y-131901344D01*
X55175127Y-131777288D01*
X55047952Y-131698846D01*
X55025807Y-131685187D01*
X55025802Y-131685185D01*
X55008866Y-131679573D01*
X54859268Y-131630001D01*
X54859266Y-131630000D01*
X54756481Y-131619500D01*
X53606469Y-131619500D01*
X53606452Y-131619501D01*
X53503674Y-131630000D01*
X53503671Y-131630001D01*
X53337139Y-131685185D01*
X53337134Y-131685187D01*
X53187813Y-131777289D01*
X53063760Y-131901342D01*
X52971658Y-132050663D01*
X52971656Y-132050668D01*
X52944837Y-132131602D01*
X52916472Y-132217203D01*
X52916472Y-132217204D01*
X52916471Y-132217204D01*
X52905971Y-132319983D01*
X52905971Y-133220001D01*
X52905972Y-133220019D01*
X52916471Y-133322796D01*
X52916472Y-133322799D01*
X52971655Y-133489328D01*
X52971657Y-133489334D01*
X53063759Y-133638656D01*
X53187815Y-133762712D01*
X53337137Y-133854814D01*
X53503674Y-133909999D01*
X53606462Y-133920500D01*
X54756479Y-133920499D01*
X54859268Y-133909999D01*
X55025805Y-133854814D01*
X55175127Y-133762712D01*
X55299183Y-133638656D01*
X55391285Y-133489334D01*
X55402499Y-133455494D01*
X55442272Y-133398050D01*
X55506788Y-133371228D01*
X55520204Y-133370500D01*
X60802738Y-133370500D01*
X60869777Y-133390185D01*
X60915532Y-133442989D01*
X60920443Y-133455494D01*
X60931657Y-133489334D01*
X61023759Y-133638656D01*
X61147815Y-133762712D01*
X61297137Y-133854814D01*
X61463674Y-133909999D01*
X61566462Y-133920500D01*
X62716479Y-133920499D01*
X62819268Y-133909999D01*
X62985805Y-133854814D01*
X63135127Y-133762712D01*
X63259183Y-133638656D01*
X63351285Y-133489334D01*
X63362499Y-133455494D01*
X63402272Y-133398050D01*
X63466788Y-133371228D01*
X63480204Y-133370500D01*
X63924802Y-133370500D01*
X63924818Y-133370501D01*
X63932414Y-133370501D01*
X64090525Y-133370501D01*
X64090528Y-133370501D01*
X64243256Y-133329577D01*
X64293375Y-133300639D01*
X64380187Y-133250520D01*
X64491991Y-133138716D01*
X64491992Y-133138714D01*
X64526133Y-133104572D01*
X64587454Y-133071089D01*
X64589621Y-133070638D01*
X64647556Y-133059113D01*
X64744968Y-133039737D01*
X64890650Y-132979394D01*
X65021760Y-132891789D01*
X65133260Y-132780289D01*
X65220865Y-132649179D01*
X65281208Y-132503497D01*
X65303836Y-132389738D01*
X65312109Y-132348150D01*
X65344494Y-132286239D01*
X65345986Y-132284719D01*
X65873888Y-131756819D01*
X65935211Y-131723334D01*
X65961569Y-131720500D01*
X75953130Y-131720500D01*
X76020169Y-131740185D01*
X76065924Y-131792989D01*
X76075868Y-131862147D01*
X76058669Y-131909596D01*
X75971660Y-132050659D01*
X75971656Y-132050668D01*
X75944837Y-132131602D01*
X75916472Y-132217203D01*
X75916472Y-132217204D01*
X75916471Y-132217204D01*
X75905971Y-132319983D01*
X75905971Y-133220001D01*
X75905972Y-133220019D01*
X75916471Y-133322796D01*
X75916472Y-133322799D01*
X75971655Y-133489328D01*
X75971657Y-133489334D01*
X76014436Y-133558691D01*
X76063760Y-133638657D01*
X76092922Y-133667819D01*
X76126407Y-133729142D01*
X76121423Y-133798834D01*
X76079551Y-133854767D01*
X76014087Y-133879184D01*
X76005241Y-133879500D01*
X68947551Y-133879500D01*
X68802563Y-133908340D01*
X68802553Y-133908343D01*
X68665982Y-133964912D01*
X68665969Y-133964919D01*
X68543055Y-134047048D01*
X68543051Y-134047051D01*
X59743815Y-142846286D01*
X59682492Y-142879771D01*
X59612800Y-142874787D01*
X59608682Y-142873166D01*
X59562670Y-142854107D01*
X59562658Y-142854104D01*
X59388694Y-142819500D01*
X59388691Y-142819500D01*
X59211309Y-142819500D01*
X59211306Y-142819500D01*
X59037341Y-142854103D01*
X59037332Y-142854106D01*
X58873459Y-142921983D01*
X58873446Y-142921990D01*
X58725965Y-143020535D01*
X58725961Y-143020538D01*
X58600538Y-143145961D01*
X58600535Y-143145965D01*
X58501990Y-143293446D01*
X58501983Y-143293459D01*
X58434106Y-143457332D01*
X58434103Y-143457341D01*
X58399500Y-143631304D01*
X58399500Y-143808695D01*
X58434103Y-143982658D01*
X58434106Y-143982667D01*
X58501983Y-144146540D01*
X58501990Y-144146553D01*
X58600535Y-144294034D01*
X58600538Y-144294038D01*
X58730272Y-144423772D01*
X58728307Y-144425736D01*
X58760942Y-144473566D01*
X58762868Y-144543409D01*
X58730655Y-144599446D01*
X58658522Y-144671580D01*
X58658518Y-144671585D01*
X58609283Y-144745271D01*
X58576392Y-144794496D01*
X58576385Y-144794508D01*
X58519813Y-144931086D01*
X58519811Y-144931092D01*
X58490971Y-145076079D01*
X58490971Y-145174729D01*
X58471286Y-145241768D01*
X58470073Y-145243620D01*
X58443459Y-145283449D01*
X58443458Y-145283452D01*
X58375577Y-145447332D01*
X58375574Y-145447341D01*
X58340971Y-145621304D01*
X58340971Y-145798695D01*
X58375574Y-145972658D01*
X58375577Y-145972667D01*
X58443454Y-146136540D01*
X58443461Y-146136553D01*
X58542006Y-146284034D01*
X58542009Y-146284038D01*
X58667432Y-146409461D01*
X58667436Y-146409464D01*
X58814917Y-146508009D01*
X58814930Y-146508016D01*
X58937834Y-146558923D01*
X58978805Y-146575894D01*
X58978807Y-146575894D01*
X58978812Y-146575896D01*
X59152775Y-146610499D01*
X59152778Y-146610500D01*
X59152780Y-146610500D01*
X59330164Y-146610500D01*
X59330165Y-146610499D01*
X59388153Y-146598964D01*
X59504129Y-146575896D01*
X59504132Y-146575894D01*
X59504137Y-146575894D01*
X59668018Y-146508013D01*
X59815506Y-146409464D01*
X59940935Y-146284035D01*
X60039484Y-146136547D01*
X60107365Y-145972666D01*
X60141971Y-145798691D01*
X60141971Y-145798684D01*
X60142568Y-145792631D01*
X60145374Y-145792907D01*
X60161656Y-145737461D01*
X60214460Y-145691706D01*
X60265971Y-145680500D01*
X60735391Y-145680500D01*
X60832933Y-145661096D01*
X60880384Y-145651658D01*
X61016966Y-145595084D01*
X61139887Y-145512951D01*
X61244422Y-145408416D01*
X61280875Y-145353858D01*
X61296288Y-145335078D01*
X67722190Y-138909175D01*
X67783513Y-138875691D01*
X67785609Y-138875254D01*
X67832666Y-138865894D01*
X67996547Y-138798013D01*
X68144035Y-138699464D01*
X68269464Y-138574035D01*
X68368013Y-138426547D01*
X68435894Y-138262666D01*
X68445239Y-138215680D01*
X68477622Y-138153772D01*
X68479118Y-138152248D01*
X68911380Y-137719986D01*
X75906472Y-137719986D01*
X75916965Y-137822697D01*
X75972112Y-137989119D01*
X75972114Y-137989124D01*
X76064155Y-138138345D01*
X76188125Y-138262315D01*
X76337346Y-138354356D01*
X76337351Y-138354358D01*
X76503773Y-138409505D01*
X76503780Y-138409506D01*
X76606490Y-138419999D01*
X76931470Y-138419999D01*
X77431471Y-138419999D01*
X77756443Y-138419999D01*
X77756457Y-138419998D01*
X77859168Y-138409505D01*
X78025590Y-138354358D01*
X78025595Y-138354356D01*
X78174816Y-138262315D01*
X78298786Y-138138345D01*
X78390827Y-137989124D01*
X78390829Y-137989119D01*
X78445976Y-137822697D01*
X78445977Y-137822690D01*
X78456470Y-137719986D01*
X83866472Y-137719986D01*
X83876965Y-137822697D01*
X83932112Y-137989119D01*
X83932114Y-137989124D01*
X84024155Y-138138345D01*
X84148125Y-138262315D01*
X84297346Y-138354356D01*
X84297351Y-138354358D01*
X84463773Y-138409505D01*
X84463780Y-138409506D01*
X84566490Y-138419999D01*
X84891470Y-138419999D01*
X85391471Y-138419999D01*
X85716443Y-138419999D01*
X85716457Y-138419998D01*
X85819168Y-138409505D01*
X85985590Y-138354358D01*
X85985595Y-138354356D01*
X86134816Y-138262315D01*
X86258786Y-138138345D01*
X86350827Y-137989124D01*
X86350829Y-137989119D01*
X86405976Y-137822697D01*
X86405977Y-137822690D01*
X86416470Y-137719986D01*
X98906472Y-137719986D01*
X98916965Y-137822697D01*
X98972112Y-137989119D01*
X98972114Y-137989124D01*
X99064155Y-138138345D01*
X99188125Y-138262315D01*
X99337346Y-138354356D01*
X99337351Y-138354358D01*
X99503773Y-138409505D01*
X99503780Y-138409506D01*
X99606490Y-138419999D01*
X99931470Y-138419999D01*
X100431471Y-138419999D01*
X100756443Y-138419999D01*
X100756457Y-138419998D01*
X100859168Y-138409505D01*
X101025590Y-138354358D01*
X101025595Y-138354356D01*
X101174816Y-138262315D01*
X101298786Y-138138345D01*
X101390827Y-137989124D01*
X101390829Y-137989119D01*
X101445976Y-137822697D01*
X101445977Y-137822690D01*
X101456470Y-137719986D01*
X106866472Y-137719986D01*
X106876965Y-137822697D01*
X106932112Y-137989119D01*
X106932114Y-137989124D01*
X107024155Y-138138345D01*
X107148125Y-138262315D01*
X107297346Y-138354356D01*
X107297351Y-138354358D01*
X107463773Y-138409505D01*
X107463780Y-138409506D01*
X107566490Y-138419999D01*
X107891470Y-138419999D01*
X108391471Y-138419999D01*
X108716443Y-138419999D01*
X108716457Y-138419998D01*
X108819168Y-138409505D01*
X108985590Y-138354358D01*
X108985595Y-138354356D01*
X109134816Y-138262315D01*
X109258786Y-138138345D01*
X109350827Y-137989124D01*
X109350829Y-137989119D01*
X109405976Y-137822697D01*
X109405977Y-137822690D01*
X109416470Y-137719986D01*
X109416471Y-137719973D01*
X109416471Y-137520000D01*
X108391471Y-137520000D01*
X108391471Y-138419999D01*
X107891470Y-138419999D01*
X107891471Y-138419998D01*
X107891471Y-137520000D01*
X106866472Y-137520000D01*
X106866472Y-137719986D01*
X101456470Y-137719986D01*
X101456471Y-137719973D01*
X101456471Y-137520000D01*
X100431471Y-137520000D01*
X100431471Y-138419999D01*
X99931470Y-138419999D01*
X99931471Y-138419998D01*
X99931471Y-137520000D01*
X98906472Y-137520000D01*
X98906472Y-137719986D01*
X86416470Y-137719986D01*
X86416471Y-137719973D01*
X86416471Y-137520000D01*
X85391471Y-137520000D01*
X85391471Y-138419999D01*
X84891470Y-138419999D01*
X84891471Y-138419998D01*
X84891471Y-137520000D01*
X83866472Y-137520000D01*
X83866472Y-137719986D01*
X78456470Y-137719986D01*
X78456471Y-137719973D01*
X78456471Y-137520000D01*
X77431471Y-137520000D01*
X77431471Y-138419999D01*
X76931470Y-138419999D01*
X76931471Y-138419998D01*
X76931471Y-137520000D01*
X75906472Y-137520000D01*
X75906472Y-137719986D01*
X68911380Y-137719986D01*
X70354549Y-136276819D01*
X70415872Y-136243334D01*
X70442230Y-136240500D01*
X75941381Y-136240500D01*
X76008420Y-136260185D01*
X76054175Y-136312989D01*
X76064119Y-136382147D01*
X76046920Y-136429597D01*
X75972114Y-136550875D01*
X75972112Y-136550880D01*
X75916965Y-136717302D01*
X75916964Y-136717309D01*
X75906471Y-136820013D01*
X75906471Y-137020000D01*
X78456470Y-137020000D01*
X78456470Y-136820028D01*
X78456469Y-136820013D01*
X78445976Y-136717302D01*
X78390829Y-136550880D01*
X78390827Y-136550875D01*
X78316022Y-136429597D01*
X78297582Y-136362204D01*
X78318505Y-136295541D01*
X78372147Y-136250771D01*
X78421561Y-136240500D01*
X82349241Y-136240500D01*
X82416280Y-136260185D01*
X82436922Y-136276819D01*
X82652294Y-136492191D01*
X82685779Y-136553514D01*
X82686230Y-136555680D01*
X82695575Y-136602660D01*
X82695577Y-136602668D01*
X82763454Y-136766540D01*
X82763461Y-136766553D01*
X82862006Y-136914034D01*
X82862009Y-136914038D01*
X82987432Y-137039461D01*
X82987436Y-137039464D01*
X83134917Y-137138009D01*
X83134930Y-137138016D01*
X83257834Y-137188923D01*
X83298805Y-137205894D01*
X83298807Y-137205894D01*
X83298812Y-137205896D01*
X83472775Y-137240499D01*
X83472778Y-137240500D01*
X83472780Y-137240500D01*
X83650164Y-137240500D01*
X83650165Y-137240499D01*
X83708153Y-137228964D01*
X83824129Y-137205896D01*
X83824132Y-137205894D01*
X83824137Y-137205894D01*
X83988018Y-137138013D01*
X84133360Y-137040898D01*
X84200037Y-137020020D01*
X84202251Y-137020000D01*
X84891471Y-137020000D01*
X85391471Y-137020000D01*
X86416470Y-137020000D01*
X86416470Y-136820029D01*
X86416469Y-136820013D01*
X98906471Y-136820013D01*
X98906471Y-137020000D01*
X99931471Y-137020000D01*
X100431471Y-137020000D01*
X101456470Y-137020000D01*
X101456470Y-136820029D01*
X101456469Y-136820013D01*
X106866471Y-136820013D01*
X106866471Y-137020000D01*
X107891471Y-137020000D01*
X108391471Y-137020000D01*
X109416470Y-137020000D01*
X109416470Y-136820028D01*
X109416469Y-136820013D01*
X109405976Y-136717302D01*
X109350829Y-136550880D01*
X109350827Y-136550875D01*
X109258786Y-136401654D01*
X109134816Y-136277684D01*
X108985595Y-136185643D01*
X108985590Y-136185641D01*
X108819168Y-136130494D01*
X108819161Y-136130493D01*
X108716457Y-136120000D01*
X108391471Y-136120000D01*
X108391471Y-137020000D01*
X107891471Y-137020000D01*
X107891471Y-136120000D01*
X107566499Y-136120000D01*
X107566483Y-136120001D01*
X107463773Y-136130494D01*
X107297351Y-136185641D01*
X107297346Y-136185643D01*
X107148125Y-136277684D01*
X107024155Y-136401654D01*
X106932114Y-136550875D01*
X106932112Y-136550880D01*
X106876965Y-136717302D01*
X106876964Y-136717309D01*
X106866471Y-136820013D01*
X101456469Y-136820013D01*
X101456469Y-136820012D01*
X101445976Y-136717302D01*
X101390829Y-136550880D01*
X101390827Y-136550875D01*
X101298786Y-136401654D01*
X101174816Y-136277684D01*
X101025595Y-136185643D01*
X101025590Y-136185641D01*
X100859168Y-136130494D01*
X100859161Y-136130493D01*
X100756457Y-136120000D01*
X100431471Y-136120000D01*
X100431471Y-137020000D01*
X99931471Y-137020000D01*
X99931471Y-136120000D01*
X99606499Y-136120000D01*
X99606483Y-136120001D01*
X99503773Y-136130494D01*
X99337351Y-136185641D01*
X99337346Y-136185643D01*
X99188125Y-136277684D01*
X99064155Y-136401654D01*
X98972114Y-136550875D01*
X98972112Y-136550880D01*
X98916965Y-136717302D01*
X98916964Y-136717309D01*
X98906471Y-136820013D01*
X86416469Y-136820013D01*
X86416469Y-136820012D01*
X86405976Y-136717302D01*
X86350829Y-136550880D01*
X86350827Y-136550875D01*
X86258786Y-136401654D01*
X86134816Y-136277684D01*
X85985595Y-136185643D01*
X85985590Y-136185641D01*
X85819168Y-136130494D01*
X85819161Y-136130493D01*
X85716457Y-136120000D01*
X85391471Y-136120000D01*
X85391471Y-137020000D01*
X84891471Y-137020000D01*
X84891471Y-136120000D01*
X84566499Y-136120000D01*
X84566473Y-136120002D01*
X84541801Y-136122522D01*
X84473108Y-136109751D01*
X84422226Y-136061868D01*
X84414642Y-136046616D01*
X84359487Y-135913459D01*
X84359480Y-135913446D01*
X84260935Y-135765965D01*
X84260932Y-135765961D01*
X84135506Y-135640535D01*
X84052033Y-135584761D01*
X84007228Y-135531149D01*
X83998521Y-135461824D01*
X84028675Y-135398797D01*
X84052034Y-135378557D01*
X84082814Y-135357989D01*
X84125506Y-135329464D01*
X84250935Y-135204035D01*
X84349484Y-135056547D01*
X84417365Y-134892666D01*
X84451971Y-134718691D01*
X84451971Y-134541309D01*
X84451971Y-134541306D01*
X84451970Y-134541304D01*
X84417367Y-134367341D01*
X84417364Y-134367332D01*
X84349487Y-134203459D01*
X84349480Y-134203446D01*
X84265718Y-134078088D01*
X84244840Y-134011411D01*
X84263324Y-133944030D01*
X84315303Y-133897340D01*
X84384273Y-133886164D01*
X84407811Y-133891487D01*
X84463674Y-133909999D01*
X84566462Y-133920500D01*
X85716479Y-133920499D01*
X85819268Y-133909999D01*
X85985805Y-133854814D01*
X86135127Y-133762712D01*
X86259183Y-133638656D01*
X86351285Y-133489334D01*
X86406470Y-133322797D01*
X86416971Y-133220009D01*
X86416970Y-132319992D01*
X86416969Y-132319983D01*
X98905971Y-132319983D01*
X98905971Y-133220001D01*
X98905972Y-133220019D01*
X98916471Y-133322796D01*
X98916472Y-133322799D01*
X98971655Y-133489328D01*
X98971657Y-133489334D01*
X99063759Y-133638656D01*
X99187815Y-133762712D01*
X99337137Y-133854814D01*
X99503674Y-133909999D01*
X99606462Y-133920500D01*
X100756479Y-133920499D01*
X100859268Y-133909999D01*
X101025805Y-133854814D01*
X101175127Y-133762712D01*
X101299183Y-133638656D01*
X101391285Y-133489334D01*
X101402499Y-133455494D01*
X101442272Y-133398050D01*
X101506788Y-133371228D01*
X101520204Y-133370500D01*
X106802738Y-133370500D01*
X106869777Y-133390185D01*
X106915532Y-133442989D01*
X106920443Y-133455494D01*
X106931657Y-133489334D01*
X107023759Y-133638656D01*
X107147815Y-133762712D01*
X107297137Y-133854814D01*
X107463674Y-133909999D01*
X107566462Y-133920500D01*
X108716479Y-133920499D01*
X108819268Y-133909999D01*
X108985805Y-133854814D01*
X109135127Y-133762712D01*
X109259183Y-133638656D01*
X109351285Y-133489334D01*
X109364772Y-133448629D01*
X109404544Y-133391186D01*
X109450381Y-133367860D01*
X109593256Y-133329577D01*
X109643375Y-133300639D01*
X109730187Y-133250520D01*
X109841991Y-133138716D01*
X109841991Y-133138714D01*
X109852199Y-133128507D01*
X109852200Y-133128504D01*
X110526136Y-132454570D01*
X110587455Y-132421088D01*
X110589622Y-132420637D01*
X110590311Y-132420500D01*
X110590313Y-132420500D01*
X110744968Y-132389737D01*
X110890650Y-132329394D01*
X111021760Y-132241789D01*
X111133260Y-132130289D01*
X111220865Y-131999179D01*
X111281208Y-131853497D01*
X111311971Y-131698842D01*
X111311971Y-131541158D01*
X111311971Y-131541155D01*
X111311970Y-131541153D01*
X111301540Y-131488717D01*
X111281208Y-131386503D01*
X111266827Y-131351783D01*
X111220868Y-131240827D01*
X111220861Y-131240814D01*
X111133260Y-131109711D01*
X111133257Y-131109707D01*
X111021763Y-130998213D01*
X111021759Y-130998210D01*
X110890656Y-130910609D01*
X110890643Y-130910602D01*
X110744972Y-130850264D01*
X110744960Y-130850261D01*
X110590316Y-130819500D01*
X110590313Y-130819500D01*
X110432629Y-130819500D01*
X110432626Y-130819500D01*
X110277981Y-130850261D01*
X110277969Y-130850264D01*
X110132298Y-130910602D01*
X110132285Y-130910609D01*
X110001182Y-130998210D01*
X110001178Y-130998213D01*
X109889684Y-131109707D01*
X109889681Y-131109711D01*
X109802080Y-131240814D01*
X109802073Y-131240827D01*
X109741735Y-131386498D01*
X109741732Y-131386508D01*
X109710833Y-131541848D01*
X109678448Y-131603759D01*
X109676897Y-131605337D01*
X109407718Y-131874517D01*
X109346395Y-131908002D01*
X109276704Y-131903018D01*
X109232356Y-131874517D01*
X109135128Y-131777289D01*
X109135127Y-131777288D01*
X109007952Y-131698846D01*
X108985807Y-131685187D01*
X108985802Y-131685185D01*
X108968866Y-131679573D01*
X108819268Y-131630001D01*
X108819266Y-131630000D01*
X108716481Y-131619500D01*
X107566469Y-131619500D01*
X107566452Y-131619501D01*
X107463674Y-131630000D01*
X107463671Y-131630001D01*
X107297139Y-131685185D01*
X107297134Y-131685187D01*
X107147813Y-131777289D01*
X107023760Y-131901342D01*
X106931658Y-132050663D01*
X106931655Y-132050671D01*
X106920443Y-132084506D01*
X106880670Y-132141950D01*
X106816154Y-132168772D01*
X106802738Y-132169500D01*
X101520204Y-132169500D01*
X101453165Y-132149815D01*
X101407410Y-132097011D01*
X101402499Y-132084506D01*
X101397589Y-132069691D01*
X101391285Y-132050666D01*
X101299183Y-131901344D01*
X101175127Y-131777288D01*
X101047952Y-131698846D01*
X101025807Y-131685187D01*
X101025802Y-131685185D01*
X101008866Y-131679573D01*
X100859268Y-131630001D01*
X100859266Y-131630000D01*
X100756481Y-131619500D01*
X99606469Y-131619500D01*
X99606452Y-131619501D01*
X99503674Y-131630000D01*
X99503671Y-131630001D01*
X99337139Y-131685185D01*
X99337134Y-131685187D01*
X99187813Y-131777289D01*
X99063760Y-131901342D01*
X98971658Y-132050663D01*
X98971656Y-132050668D01*
X98944837Y-132131602D01*
X98916472Y-132217203D01*
X98916472Y-132217204D01*
X98916471Y-132217204D01*
X98905971Y-132319983D01*
X86416969Y-132319983D01*
X86408981Y-132241789D01*
X86406470Y-132217203D01*
X86406469Y-132217200D01*
X86390663Y-132169500D01*
X86351285Y-132050666D01*
X86259183Y-131901344D01*
X86135127Y-131777288D01*
X86007952Y-131698846D01*
X85985807Y-131685187D01*
X85985802Y-131685185D01*
X85826967Y-131632552D01*
X85769522Y-131592779D01*
X85742699Y-131528263D01*
X85741971Y-131514846D01*
X85741971Y-131172940D01*
X85761656Y-131105901D01*
X85778289Y-131085259D01*
X85783260Y-131080289D01*
X85870865Y-130949179D01*
X85931208Y-130803497D01*
X85961971Y-130648842D01*
X85961971Y-130491158D01*
X85961971Y-130491155D01*
X85961970Y-130491153D01*
X85931209Y-130336510D01*
X85931208Y-130336503D01*
X85931206Y-130336498D01*
X85870868Y-130190827D01*
X85870861Y-130190814D01*
X85783260Y-130059711D01*
X85783257Y-130059707D01*
X85671763Y-129948213D01*
X85671759Y-129948210D01*
X85540656Y-129860609D01*
X85540643Y-129860602D01*
X85394972Y-129800264D01*
X85394960Y-129800261D01*
X85240316Y-129769500D01*
X85240313Y-129769500D01*
X85082629Y-129769500D01*
X85082626Y-129769500D01*
X84927981Y-129800261D01*
X84927969Y-129800264D01*
X84782298Y-129860602D01*
X84782285Y-129860609D01*
X84651182Y-129948210D01*
X84651178Y-129948213D01*
X84539684Y-130059707D01*
X84539681Y-130059711D01*
X84452080Y-130190814D01*
X84452073Y-130190827D01*
X84391735Y-130336498D01*
X84391732Y-130336510D01*
X84360971Y-130491153D01*
X84360971Y-130648846D01*
X84391732Y-130803489D01*
X84391735Y-130803501D01*
X84452073Y-130949172D01*
X84452080Y-130949184D01*
X84520073Y-131050942D01*
X84540951Y-131117619D01*
X84540971Y-131119833D01*
X84540971Y-131514845D01*
X84521286Y-131581884D01*
X84468482Y-131627639D01*
X84455976Y-131632551D01*
X84297137Y-131685186D01*
X84297134Y-131685187D01*
X84147813Y-131777289D01*
X84023760Y-131901342D01*
X83931658Y-132050663D01*
X83931655Y-132050671D01*
X83920443Y-132084506D01*
X83880670Y-132141950D01*
X83816154Y-132168772D01*
X83802738Y-132169500D01*
X78520204Y-132169500D01*
X78453165Y-132149815D01*
X78407410Y-132097011D01*
X78402499Y-132084506D01*
X78397589Y-132069691D01*
X78391285Y-132050666D01*
X78382549Y-132036503D01*
X78304273Y-131909596D01*
X78285833Y-131842204D01*
X78306756Y-131775541D01*
X78360398Y-131730771D01*
X78409812Y-131720500D01*
X78690526Y-131720500D01*
X78690528Y-131720500D01*
X78843255Y-131679577D01*
X78980187Y-131600520D01*
X79091991Y-131488716D01*
X79171048Y-131351784D01*
X79211971Y-131199057D01*
X79211971Y-125340146D01*
X79231656Y-125273107D01*
X79248281Y-125252474D01*
X79376686Y-125124069D01*
X79438004Y-125090587D01*
X79507696Y-125095571D01*
X79552045Y-125124073D01*
X79597432Y-125169461D01*
X79597436Y-125169464D01*
X79744917Y-125268009D01*
X79744930Y-125268016D01*
X79867834Y-125318923D01*
X79908805Y-125335894D01*
X79908807Y-125335894D01*
X79908812Y-125335896D01*
X80082775Y-125370499D01*
X80082778Y-125370500D01*
X80082780Y-125370500D01*
X80260164Y-125370500D01*
X80260165Y-125370499D01*
X80318153Y-125358964D01*
X80434129Y-125335896D01*
X80434132Y-125335894D01*
X80434137Y-125335894D01*
X80598018Y-125268013D01*
X80598021Y-125268010D01*
X80598023Y-125268010D01*
X80637849Y-125241399D01*
X80704526Y-125220520D01*
X80706741Y-125220500D01*
X82176201Y-125220500D01*
X82243240Y-125240185D01*
X82245093Y-125241399D01*
X82284918Y-125268010D01*
X82284921Y-125268011D01*
X82284924Y-125268013D01*
X82448805Y-125335894D01*
X82498388Y-125345756D01*
X82560297Y-125378139D01*
X82561877Y-125379692D01*
X85615692Y-128433507D01*
X85624299Y-128443993D01*
X85624653Y-128443704D01*
X85628517Y-128448412D01*
X85628520Y-128448416D01*
X85733054Y-128552950D01*
X85733056Y-128552952D01*
X85855969Y-128635080D01*
X85855982Y-128635087D01*
X85992553Y-128691656D01*
X85992558Y-128691658D01*
X85992562Y-128691658D01*
X85992563Y-128691659D01*
X86137550Y-128720500D01*
X86137553Y-128720500D01*
X106523920Y-128720500D01*
X106621462Y-128701096D01*
X106668913Y-128691658D01*
X106805495Y-128635084D01*
X106854729Y-128602186D01*
X106928416Y-128552952D01*
X108245297Y-127236069D01*
X108285524Y-127209191D01*
X108309179Y-127199394D01*
X108440289Y-127111789D01*
X108551789Y-127000289D01*
X108639394Y-126869179D01*
X108699737Y-126723497D01*
X108730500Y-126568842D01*
X108730500Y-126411158D01*
X108730500Y-126411155D01*
X108730499Y-126411153D01*
X108699738Y-126256510D01*
X108699737Y-126256503D01*
X108665855Y-126174703D01*
X108639397Y-126110827D01*
X108639390Y-126110814D01*
X108551789Y-125979711D01*
X108551786Y-125979707D01*
X108440292Y-125868213D01*
X108440288Y-125868210D01*
X108309185Y-125780609D01*
X108309172Y-125780602D01*
X108163501Y-125720264D01*
X108163489Y-125720261D01*
X108008845Y-125689500D01*
X108008842Y-125689500D01*
X107851158Y-125689500D01*
X107851155Y-125689500D01*
X107696510Y-125720261D01*
X107696498Y-125720264D01*
X107550827Y-125780602D01*
X107550814Y-125780609D01*
X107419711Y-125868210D01*
X107419707Y-125868213D01*
X107308213Y-125979707D01*
X107308207Y-125979715D01*
X107220607Y-126110818D01*
X107220606Y-126110819D01*
X107210805Y-126134480D01*
X107183927Y-126174703D01*
X106175451Y-127183181D01*
X106114128Y-127216666D01*
X106087770Y-127219500D01*
X86575783Y-127219500D01*
X86508744Y-127199815D01*
X86488102Y-127183181D01*
X83837102Y-124532181D01*
X83803617Y-124470858D01*
X83808601Y-124401166D01*
X83850473Y-124345233D01*
X83915937Y-124320816D01*
X83924783Y-124320500D01*
X90324802Y-124320500D01*
X90324818Y-124320501D01*
X90332414Y-124320501D01*
X90490525Y-124320501D01*
X90490528Y-124320501D01*
X90643256Y-124279577D01*
X90708706Y-124241789D01*
X90780187Y-124200520D01*
X90891991Y-124088716D01*
X90891991Y-124088714D01*
X90902195Y-124078511D01*
X90902198Y-124078506D01*
X109099292Y-105881413D01*
X109160613Y-105847930D01*
X109230305Y-105852914D01*
X109286238Y-105894786D01*
X109310655Y-105960250D01*
X109310971Y-105969096D01*
X109310971Y-123040234D01*
X109291286Y-123107273D01*
X109290073Y-123109125D01*
X109202080Y-123240814D01*
X109202073Y-123240827D01*
X109141735Y-123386498D01*
X109141732Y-123386510D01*
X109110971Y-123541153D01*
X109110971Y-123698846D01*
X109141732Y-123853489D01*
X109141735Y-123853501D01*
X109202073Y-123999172D01*
X109202080Y-123999185D01*
X109289681Y-124130288D01*
X109289684Y-124130292D01*
X109401178Y-124241786D01*
X109401182Y-124241789D01*
X109532285Y-124329390D01*
X109532298Y-124329397D01*
X109677969Y-124389735D01*
X109677974Y-124389737D01*
X109832624Y-124420499D01*
X109832627Y-124420500D01*
X109832629Y-124420500D01*
X109990315Y-124420500D01*
X109990316Y-124420499D01*
X110144968Y-124389737D01*
X110290650Y-124329394D01*
X110421760Y-124241789D01*
X110533260Y-124130289D01*
X110620865Y-123999179D01*
X110681208Y-123853497D01*
X110711971Y-123698842D01*
X110711971Y-123541158D01*
X110711971Y-123541155D01*
X110711970Y-123541153D01*
X110681209Y-123386510D01*
X110681208Y-123386503D01*
X110681206Y-123386498D01*
X110620868Y-123240827D01*
X110620861Y-123240814D01*
X110532869Y-123109125D01*
X110511991Y-123042447D01*
X110511971Y-123040234D01*
X110511971Y-117533713D01*
X122000971Y-117533713D01*
X122000971Y-117746286D01*
X122034224Y-117956239D01*
X122099915Y-118158414D01*
X122196422Y-118347820D01*
X122321361Y-118519786D01*
X122471684Y-118670109D01*
X122643650Y-118795048D01*
X122643652Y-118795049D01*
X122643655Y-118795051D01*
X122833059Y-118891557D01*
X123035228Y-118957246D01*
X123245184Y-118990500D01*
X123245185Y-118990500D01*
X123457757Y-118990500D01*
X123457758Y-118990500D01*
X123667714Y-118957246D01*
X123869883Y-118891557D01*
X124059287Y-118795051D01*
X124081260Y-118779086D01*
X124231257Y-118670109D01*
X124231259Y-118670106D01*
X124231263Y-118670104D01*
X124381575Y-118519792D01*
X124381577Y-118519788D01*
X124381580Y-118519786D01*
X124506519Y-118347820D01*
X124506518Y-118347820D01*
X124506522Y-118347816D01*
X124603028Y-118158412D01*
X124668717Y-117956243D01*
X124701971Y-117746287D01*
X124701971Y-117533713D01*
X124668717Y-117323757D01*
X124603028Y-117121588D01*
X124506522Y-116932184D01*
X124506520Y-116932181D01*
X124506519Y-116932179D01*
X124381580Y-116760213D01*
X124231257Y-116609890D01*
X124059291Y-116484951D01*
X123869885Y-116388444D01*
X123869884Y-116388443D01*
X123869883Y-116388443D01*
X123667714Y-116322754D01*
X123667712Y-116322753D01*
X123667711Y-116322753D01*
X123506428Y-116297208D01*
X123457758Y-116289500D01*
X123245184Y-116289500D01*
X123196513Y-116297208D01*
X123035231Y-116322753D01*
X122833056Y-116388444D01*
X122643650Y-116484951D01*
X122471684Y-116609890D01*
X122321361Y-116760213D01*
X122196422Y-116932179D01*
X122099915Y-117121585D01*
X122034224Y-117323760D01*
X122000971Y-117533713D01*
X110511971Y-117533713D01*
X110511971Y-99317757D01*
X110531656Y-99250718D01*
X110584460Y-99204963D01*
X110653618Y-99195019D01*
X110660163Y-99196140D01*
X110782626Y-99220500D01*
X110782629Y-99220500D01*
X110940315Y-99220500D01*
X110940316Y-99220499D01*
X111094968Y-99189737D01*
X111240650Y-99129394D01*
X111371760Y-99041789D01*
X111483260Y-98930289D01*
X111570865Y-98799179D01*
X111631208Y-98653497D01*
X111661971Y-98498842D01*
X111661971Y-98341158D01*
X111661971Y-98341155D01*
X111661970Y-98341153D01*
X111631209Y-98186510D01*
X111631208Y-98186503D01*
X111631206Y-98186498D01*
X111570868Y-98040827D01*
X111570861Y-98040814D01*
X111482869Y-97909125D01*
X111461991Y-97842447D01*
X111461971Y-97840234D01*
X111461971Y-88331304D01*
X119160971Y-88331304D01*
X119160971Y-88508695D01*
X119195574Y-88682658D01*
X119195577Y-88682667D01*
X119263454Y-88846540D01*
X119263461Y-88846553D01*
X119362006Y-88994034D01*
X119362009Y-88994038D01*
X119487432Y-89119461D01*
X119487436Y-89119464D01*
X119634917Y-89218009D01*
X119634930Y-89218016D01*
X119711577Y-89249763D01*
X119798805Y-89285894D01*
X119845789Y-89295239D01*
X119907698Y-89327622D01*
X119909278Y-89329175D01*
X122252294Y-91672191D01*
X122285779Y-91733514D01*
X122286230Y-91735680D01*
X122295575Y-91782660D01*
X122295577Y-91782668D01*
X122363454Y-91946540D01*
X122363461Y-91946553D01*
X122462006Y-92094034D01*
X122462009Y-92094038D01*
X122587432Y-92219461D01*
X122587436Y-92219464D01*
X122734917Y-92318009D01*
X122734930Y-92318016D01*
X122857834Y-92368923D01*
X122898805Y-92385894D01*
X122898807Y-92385894D01*
X122898812Y-92385896D01*
X123072775Y-92420499D01*
X123072778Y-92420500D01*
X123072780Y-92420500D01*
X123250164Y-92420500D01*
X123250165Y-92420499D01*
X123308153Y-92408964D01*
X123424129Y-92385896D01*
X123424132Y-92385894D01*
X123424137Y-92385894D01*
X123588018Y-92318013D01*
X123735506Y-92219464D01*
X123860935Y-92094035D01*
X123959484Y-91946547D01*
X124027365Y-91782666D01*
X124061971Y-91608691D01*
X124061971Y-91431309D01*
X124061971Y-91431306D01*
X124061970Y-91431304D01*
X124027367Y-91257341D01*
X124027364Y-91257332D01*
X123959487Y-91093459D01*
X123959480Y-91093446D01*
X123860935Y-90945965D01*
X123860932Y-90945961D01*
X123735509Y-90820538D01*
X123735505Y-90820535D01*
X123588024Y-90721990D01*
X123588011Y-90721983D01*
X123424139Y-90654106D01*
X123424131Y-90654104D01*
X123377151Y-90644759D01*
X123315240Y-90612374D01*
X123313662Y-90610823D01*
X120970646Y-88267807D01*
X120937161Y-88206484D01*
X120936733Y-88204432D01*
X120927365Y-88157334D01*
X120910394Y-88116363D01*
X120859487Y-87993459D01*
X120859480Y-87993446D01*
X120760935Y-87845965D01*
X120760932Y-87845961D01*
X120635509Y-87720538D01*
X120635505Y-87720535D01*
X120488024Y-87621990D01*
X120488011Y-87621983D01*
X120324138Y-87554106D01*
X120324129Y-87554103D01*
X120150165Y-87519500D01*
X120150162Y-87519500D01*
X119972780Y-87519500D01*
X119972777Y-87519500D01*
X119798812Y-87554103D01*
X119798803Y-87554106D01*
X119634930Y-87621983D01*
X119634917Y-87621990D01*
X119487436Y-87720535D01*
X119487432Y-87720538D01*
X119362009Y-87845961D01*
X119362006Y-87845965D01*
X119263461Y-87993446D01*
X119263454Y-87993459D01*
X119195577Y-88157332D01*
X119195574Y-88157341D01*
X119160971Y-88331304D01*
X111461971Y-88331304D01*
X111461971Y-77799765D01*
X111481656Y-77732726D01*
X111482869Y-77730874D01*
X111521910Y-77672446D01*
X111570865Y-77599179D01*
X111631208Y-77453497D01*
X111636038Y-77429213D01*
X111668421Y-77367305D01*
X111729136Y-77332729D01*
X111798905Y-77336467D01*
X111805087Y-77338836D01*
X111927974Y-77389737D01*
X112082624Y-77420499D01*
X112082627Y-77420500D01*
X112082629Y-77420500D01*
X112240315Y-77420500D01*
X112240316Y-77420499D01*
X112394968Y-77389737D01*
X112540650Y-77329394D01*
X112671760Y-77241789D01*
X112783260Y-77130289D01*
X112870865Y-76999179D01*
X112931208Y-76853497D01*
X112961971Y-76698842D01*
X112961971Y-76564500D01*
X112981656Y-76497461D01*
X113034460Y-76451706D01*
X113085971Y-76440500D01*
X120415752Y-76440500D01*
X120482791Y-76460185D01*
X120526236Y-76508205D01*
X120546418Y-76547814D01*
X120546419Y-76547815D01*
X120671361Y-76719786D01*
X120821684Y-76870109D01*
X120993653Y-76995050D01*
X121002417Y-76999516D01*
X121053213Y-77047491D01*
X121070007Y-77115312D01*
X121047469Y-77181447D01*
X121002417Y-77220484D01*
X120993653Y-77224949D01*
X120821684Y-77349890D01*
X120671361Y-77500213D01*
X120546422Y-77672179D01*
X120449915Y-77861585D01*
X120384224Y-78063760D01*
X120364704Y-78187007D01*
X120350971Y-78273713D01*
X120350971Y-78486287D01*
X120354520Y-78508695D01*
X120384224Y-78696239D01*
X120449915Y-78898414D01*
X120546422Y-79087820D01*
X120671361Y-79259786D01*
X120821684Y-79410109D01*
X120993650Y-79535048D01*
X120993652Y-79535049D01*
X120993655Y-79535051D01*
X121183059Y-79631557D01*
X121385228Y-79697246D01*
X121595184Y-79730500D01*
X121595185Y-79730500D01*
X121807757Y-79730500D01*
X121807758Y-79730500D01*
X122017714Y-79697246D01*
X122219883Y-79631557D01*
X122409287Y-79535051D01*
X122464043Y-79495269D01*
X122581257Y-79410109D01*
X122581259Y-79410106D01*
X122581263Y-79410104D01*
X122731575Y-79259792D01*
X122731577Y-79259788D01*
X122731580Y-79259786D01*
X122815670Y-79144044D01*
X122856522Y-79087816D01*
X122861264Y-79078508D01*
X122909234Y-79027711D01*
X122977054Y-79010911D01*
X123043190Y-79033445D01*
X123082234Y-79078500D01*
X123086844Y-79087547D01*
X123126199Y-79141716D01*
X123758508Y-78509408D01*
X123775546Y-78572993D01*
X123841372Y-78687007D01*
X123934464Y-78780099D01*
X124048478Y-78845925D01*
X124112061Y-78862962D01*
X123479753Y-79495269D01*
X123479753Y-79495270D01*
X123533920Y-79534624D01*
X123723253Y-79631095D01*
X123925341Y-79696757D01*
X124135225Y-79730000D01*
X124347717Y-79730000D01*
X124557598Y-79696757D01*
X124557601Y-79696757D01*
X124759688Y-79631095D01*
X124949025Y-79534622D01*
X125003187Y-79495270D01*
X125003188Y-79495270D01*
X124370879Y-78862962D01*
X124434464Y-78845925D01*
X124548478Y-78780099D01*
X124641570Y-78687007D01*
X124707396Y-78572993D01*
X124724433Y-78509408D01*
X125356740Y-79141716D01*
X125387598Y-79099245D01*
X125442928Y-79056579D01*
X125512541Y-79050600D01*
X125574337Y-79083205D01*
X125608694Y-79144044D01*
X125611917Y-79172273D01*
X125520143Y-158686143D01*
X125500381Y-158753160D01*
X125447524Y-158798854D01*
X125396143Y-158810000D01*
X36443981Y-158810000D01*
X36376942Y-158790315D01*
X36331187Y-158737511D01*
X36319981Y-158686019D01*
X36319855Y-157870500D01*
X36319639Y-156463713D01*
X37820971Y-156463713D01*
X37820971Y-156676287D01*
X37854225Y-156886243D01*
X37880965Y-156968541D01*
X37919915Y-157088414D01*
X38016422Y-157277820D01*
X38141361Y-157449786D01*
X38291684Y-157600109D01*
X38463650Y-157725048D01*
X38463652Y-157725049D01*
X38463655Y-157725051D01*
X38653059Y-157821557D01*
X38855228Y-157887246D01*
X39065184Y-157920500D01*
X39065185Y-157920500D01*
X39277757Y-157920500D01*
X39277758Y-157920500D01*
X39487714Y-157887246D01*
X39689883Y-157821557D01*
X39879287Y-157725051D01*
X39955059Y-157670000D01*
X40051257Y-157600109D01*
X40051259Y-157600106D01*
X40051263Y-157600104D01*
X40201575Y-157449792D01*
X40201577Y-157449788D01*
X40201580Y-157449786D01*
X40326519Y-157277820D01*
X40326518Y-157277820D01*
X40326522Y-157277816D01*
X40423028Y-157088412D01*
X40488717Y-156886243D01*
X40521971Y-156676287D01*
X40521971Y-156463713D01*
X40488717Y-156253757D01*
X40423028Y-156051588D01*
X40326522Y-155862184D01*
X40326520Y-155862181D01*
X40326519Y-155862179D01*
X40201580Y-155690213D01*
X40051257Y-155539890D01*
X39879291Y-155414951D01*
X39689885Y-155318444D01*
X39689884Y-155318443D01*
X39689883Y-155318443D01*
X39487714Y-155252754D01*
X39487712Y-155252753D01*
X39487711Y-155252753D01*
X39326428Y-155227208D01*
X39277758Y-155219500D01*
X39065184Y-155219500D01*
X39016513Y-155227208D01*
X38855231Y-155252753D01*
X38653056Y-155318444D01*
X38463650Y-155414951D01*
X38291684Y-155539890D01*
X38141361Y-155690213D01*
X38016422Y-155862179D01*
X37919915Y-156051585D01*
X37854224Y-156253760D01*
X37820971Y-156463713D01*
X36319639Y-156463713D01*
X36319012Y-152389673D01*
X36317945Y-145447577D01*
X48197446Y-145447577D01*
X48302707Y-145491178D01*
X48302711Y-145491179D01*
X48447597Y-145519999D01*
X48447600Y-145520000D01*
X48595342Y-145520000D01*
X48595344Y-145519999D01*
X48740231Y-145491179D01*
X48740246Y-145491175D01*
X48845495Y-145447578D01*
X48845495Y-145447577D01*
X49597446Y-145447577D01*
X49702707Y-145491178D01*
X49702711Y-145491179D01*
X49847597Y-145519999D01*
X49847600Y-145520000D01*
X49995342Y-145520000D01*
X49995344Y-145519999D01*
X50140231Y-145491179D01*
X50140246Y-145491175D01*
X50245495Y-145447578D01*
X50245495Y-145447577D01*
X49921472Y-145123554D01*
X49921471Y-145123554D01*
X49597446Y-145447577D01*
X48845495Y-145447577D01*
X48521472Y-145123554D01*
X48521471Y-145123554D01*
X48197446Y-145447577D01*
X36317945Y-145447577D01*
X36317939Y-145406782D01*
X36317830Y-144696126D01*
X47771471Y-144696126D01*
X47771471Y-144843873D01*
X47800291Y-144988759D01*
X47800293Y-144988767D01*
X47843892Y-145094024D01*
X48167917Y-144770000D01*
X48167917Y-144769999D01*
X48148027Y-144750109D01*
X48421471Y-144750109D01*
X48421471Y-144789891D01*
X48436695Y-144826645D01*
X48464826Y-144854776D01*
X48501580Y-144870000D01*
X48541362Y-144870000D01*
X48578116Y-144854776D01*
X48606247Y-144826645D01*
X48621471Y-144789891D01*
X48621471Y-144769999D01*
X48875025Y-144769999D01*
X48875025Y-144770001D01*
X49199400Y-145094376D01*
X49243540Y-145094376D01*
X49567917Y-144770000D01*
X49548026Y-144750109D01*
X49821471Y-144750109D01*
X49821471Y-144789891D01*
X49836695Y-144826645D01*
X49864826Y-144854776D01*
X49901580Y-144870000D01*
X49941362Y-144870000D01*
X49978116Y-144854776D01*
X50006247Y-144826645D01*
X50021471Y-144789891D01*
X50021471Y-144769999D01*
X50275025Y-144769999D01*
X50275025Y-144770001D01*
X50599048Y-145094024D01*
X50599049Y-145094024D01*
X50642646Y-144988775D01*
X50642650Y-144988760D01*
X50671470Y-144843873D01*
X50671471Y-144843871D01*
X50671471Y-144696128D01*
X50671470Y-144696126D01*
X50642650Y-144551240D01*
X50642649Y-144551236D01*
X50599048Y-144445975D01*
X50275025Y-144769999D01*
X50021471Y-144769999D01*
X50021471Y-144750109D01*
X50006247Y-144713355D01*
X49978116Y-144685224D01*
X49941362Y-144670000D01*
X49901580Y-144670000D01*
X49864826Y-144685224D01*
X49836695Y-144713355D01*
X49821471Y-144750109D01*
X49548026Y-144750109D01*
X49243539Y-144445622D01*
X49199401Y-144445622D01*
X48875025Y-144769999D01*
X48621471Y-144769999D01*
X48621471Y-144750109D01*
X48606247Y-144713355D01*
X48578116Y-144685224D01*
X48541362Y-144670000D01*
X48501580Y-144670000D01*
X48464826Y-144685224D01*
X48436695Y-144713355D01*
X48421471Y-144750109D01*
X48148027Y-144750109D01*
X47843892Y-144445974D01*
X47843891Y-144445974D01*
X47800294Y-144551228D01*
X47800291Y-144551240D01*
X47771471Y-144696126D01*
X36317830Y-144696126D01*
X36317829Y-144690058D01*
X36317749Y-144170000D01*
X48275025Y-144170000D01*
X48521471Y-144416446D01*
X48767917Y-144170000D01*
X49675025Y-144170000D01*
X49921471Y-144416446D01*
X50167917Y-144170000D01*
X50139070Y-144141153D01*
X53460971Y-144141153D01*
X53460971Y-144298846D01*
X53491732Y-144453489D01*
X53491735Y-144453501D01*
X53552073Y-144599172D01*
X53552080Y-144599185D01*
X53640073Y-144730874D01*
X53660951Y-144797551D01*
X53660971Y-144799765D01*
X53660971Y-144813330D01*
X53660970Y-144813348D01*
X53660970Y-144979057D01*
X53666746Y-145000613D01*
X53670971Y-145032706D01*
X53670971Y-151203330D01*
X53670970Y-151203348D01*
X53670970Y-151369054D01*
X53670969Y-151369054D01*
X53670970Y-151369057D01*
X53711894Y-151521785D01*
X53711895Y-151521787D01*
X53711894Y-151521787D01*
X53727125Y-151548166D01*
X53727127Y-151548168D01*
X53790950Y-151658714D01*
X53790952Y-151658717D01*
X53909820Y-151777585D01*
X53909825Y-151777589D01*
X55352755Y-153220520D01*
X55352757Y-153220521D01*
X55352761Y-153220524D01*
X55489680Y-153299573D01*
X55489687Y-153299577D01*
X55642414Y-153340501D01*
X55642416Y-153340501D01*
X55808125Y-153340501D01*
X55808141Y-153340500D01*
X56301705Y-153340500D01*
X56368744Y-153360185D01*
X56370596Y-153361398D01*
X56502285Y-153449390D01*
X56502298Y-153449397D01*
X56647969Y-153509735D01*
X56647974Y-153509737D01*
X56802624Y-153540499D01*
X56802627Y-153540500D01*
X56802629Y-153540500D01*
X56960315Y-153540500D01*
X56960316Y-153540499D01*
X57114968Y-153509737D01*
X57260650Y-153449394D01*
X57391760Y-153361789D01*
X57503260Y-153250289D01*
X57590865Y-153119179D01*
X57624265Y-153038543D01*
X75840970Y-153038543D01*
X75879418Y-153231829D01*
X75879421Y-153231839D01*
X75954835Y-153413907D01*
X75954842Y-153413920D01*
X76064331Y-153577781D01*
X76064334Y-153577785D01*
X76204652Y-153718103D01*
X76238137Y-153779426D01*
X76240971Y-153805784D01*
X76240971Y-155404216D01*
X76221286Y-155471255D01*
X76204652Y-155491897D01*
X76064334Y-155632214D01*
X76064331Y-155632218D01*
X75954842Y-155796079D01*
X75954835Y-155796092D01*
X75879421Y-155978160D01*
X75879418Y-155978170D01*
X75840971Y-156171456D01*
X75840971Y-156171459D01*
X75840971Y-156968541D01*
X75840971Y-156968543D01*
X75840970Y-156968543D01*
X75879418Y-157161829D01*
X75879421Y-157161839D01*
X75954835Y-157343907D01*
X75954842Y-157343920D01*
X76064331Y-157507781D01*
X76064334Y-157507785D01*
X76203685Y-157647136D01*
X76203689Y-157647139D01*
X76367550Y-157756628D01*
X76367563Y-157756635D01*
X76524296Y-157821555D01*
X76549636Y-157832051D01*
X76549640Y-157832051D01*
X76549641Y-157832052D01*
X76742927Y-157870500D01*
X76742930Y-157870500D01*
X76940014Y-157870500D01*
X77070053Y-157844632D01*
X77133306Y-157832051D01*
X77315385Y-157756632D01*
X77479253Y-157647139D01*
X77618610Y-157507782D01*
X77728103Y-157343914D01*
X77803522Y-157161835D01*
X77841971Y-156968541D01*
X77841971Y-156171459D01*
X77841971Y-156171456D01*
X77803523Y-155978170D01*
X77803522Y-155978169D01*
X77803522Y-155978165D01*
X77803520Y-155978160D01*
X77728106Y-155796092D01*
X77728099Y-155796079D01*
X77618610Y-155632218D01*
X77618607Y-155632214D01*
X77478290Y-155491897D01*
X77444805Y-155430574D01*
X77441971Y-155404216D01*
X77441971Y-153805784D01*
X77461656Y-153738745D01*
X77478290Y-153718103D01*
X77618607Y-153577785D01*
X77618610Y-153577782D01*
X77731488Y-153408848D01*
X77732945Y-153409821D01*
X77776066Y-153365903D01*
X77844200Y-153350426D01*
X77909885Y-153374242D01*
X77911973Y-153375809D01*
X77918103Y-153380512D01*
X77918106Y-153380515D01*
X78049336Y-153456281D01*
X78195705Y-153495500D01*
X78195707Y-153495500D01*
X78347235Y-153495500D01*
X78347237Y-153495500D01*
X78493606Y-153456281D01*
X78624836Y-153380515D01*
X78731986Y-153273365D01*
X78807752Y-153142135D01*
X78846971Y-152995766D01*
X78846971Y-152844234D01*
X83475971Y-152844234D01*
X83475971Y-152995766D01*
X83487433Y-153038543D01*
X83515190Y-153142136D01*
X83553073Y-153207750D01*
X83590956Y-153273365D01*
X83698106Y-153380515D01*
X83829336Y-153456281D01*
X83975705Y-153495500D01*
X83975707Y-153495500D01*
X84127235Y-153495500D01*
X84127237Y-153495500D01*
X84273606Y-153456281D01*
X84404836Y-153380515D01*
X84404845Y-153380505D01*
X84410959Y-153375815D01*
X84476127Y-153350617D01*
X84544572Y-153364650D01*
X84590496Y-153409488D01*
X84591454Y-153408849D01*
X84594480Y-153413378D01*
X84594565Y-153413461D01*
X84594699Y-153413706D01*
X84704331Y-153577781D01*
X84704334Y-153577785D01*
X84844652Y-153718103D01*
X84878137Y-153779426D01*
X84880971Y-153805784D01*
X84880971Y-155404216D01*
X84861286Y-155471255D01*
X84844652Y-155491897D01*
X84704334Y-155632214D01*
X84704331Y-155632218D01*
X84594842Y-155796079D01*
X84594835Y-155796092D01*
X84519421Y-155978160D01*
X84519418Y-155978170D01*
X84480971Y-156171456D01*
X84480971Y-156171459D01*
X84480971Y-156968541D01*
X84480971Y-156968543D01*
X84480970Y-156968543D01*
X84519418Y-157161829D01*
X84519421Y-157161839D01*
X84594835Y-157343907D01*
X84594842Y-157343920D01*
X84704331Y-157507781D01*
X84704334Y-157507785D01*
X84843685Y-157647136D01*
X84843689Y-157647139D01*
X85007550Y-157756628D01*
X85007563Y-157756635D01*
X85164296Y-157821555D01*
X85189636Y-157832051D01*
X85189640Y-157832051D01*
X85189641Y-157832052D01*
X85382927Y-157870500D01*
X85382930Y-157870500D01*
X85580014Y-157870500D01*
X85710053Y-157844632D01*
X85773306Y-157832051D01*
X85955385Y-157756632D01*
X86119253Y-157647139D01*
X86258610Y-157507782D01*
X86368103Y-157343914D01*
X86443522Y-157161835D01*
X86481971Y-156968541D01*
X86481971Y-156463713D01*
X122000971Y-156463713D01*
X122000971Y-156676287D01*
X122034225Y-156886243D01*
X122060965Y-156968541D01*
X122099915Y-157088414D01*
X122196422Y-157277820D01*
X122321361Y-157449786D01*
X122471684Y-157600109D01*
X122643650Y-157725048D01*
X122643652Y-157725049D01*
X122643655Y-157725051D01*
X122833059Y-157821557D01*
X123035228Y-157887246D01*
X123245184Y-157920500D01*
X123245185Y-157920500D01*
X123457757Y-157920500D01*
X123457758Y-157920500D01*
X123667714Y-157887246D01*
X123869883Y-157821557D01*
X124059287Y-157725051D01*
X124135059Y-157670000D01*
X124231257Y-157600109D01*
X124231259Y-157600106D01*
X124231263Y-157600104D01*
X124381575Y-157449792D01*
X124381577Y-157449788D01*
X124381580Y-157449786D01*
X124506519Y-157277820D01*
X124506518Y-157277820D01*
X124506522Y-157277816D01*
X124603028Y-157088412D01*
X124668717Y-156886243D01*
X124701971Y-156676287D01*
X124701971Y-156463713D01*
X124668717Y-156253757D01*
X124603028Y-156051588D01*
X124506522Y-155862184D01*
X124506520Y-155862181D01*
X124506519Y-155862179D01*
X124381580Y-155690213D01*
X124231257Y-155539890D01*
X124059291Y-155414951D01*
X123869885Y-155318444D01*
X123869884Y-155318443D01*
X123869883Y-155318443D01*
X123667714Y-155252754D01*
X123667712Y-155252753D01*
X123667711Y-155252753D01*
X123506428Y-155227208D01*
X123457758Y-155219500D01*
X123245184Y-155219500D01*
X123196513Y-155227208D01*
X123035231Y-155252753D01*
X122833056Y-155318444D01*
X122643650Y-155414951D01*
X122471684Y-155539890D01*
X122321361Y-155690213D01*
X122196422Y-155862179D01*
X122099915Y-156051585D01*
X122034224Y-156253760D01*
X122000971Y-156463713D01*
X86481971Y-156463713D01*
X86481971Y-156171459D01*
X86481971Y-156171456D01*
X86443523Y-155978170D01*
X86443522Y-155978169D01*
X86443522Y-155978165D01*
X86443520Y-155978160D01*
X86368106Y-155796092D01*
X86368099Y-155796079D01*
X86258610Y-155632218D01*
X86258607Y-155632214D01*
X86118290Y-155491897D01*
X86084805Y-155430574D01*
X86081971Y-155404216D01*
X86081971Y-153805784D01*
X86101656Y-153738745D01*
X86118290Y-153718103D01*
X86258607Y-153577785D01*
X86258610Y-153577782D01*
X86368103Y-153413914D01*
X86443522Y-153231835D01*
X86456103Y-153168582D01*
X86481971Y-153038543D01*
X86481971Y-151741456D01*
X86443523Y-151548168D01*
X86443520Y-151548160D01*
X86368106Y-151366092D01*
X86368099Y-151366079D01*
X86258610Y-151202218D01*
X86258607Y-151202214D01*
X86119256Y-151062863D01*
X86119252Y-151062860D01*
X85955391Y-150953371D01*
X85955378Y-150953364D01*
X85773310Y-150877950D01*
X85773300Y-150877947D01*
X85580014Y-150839500D01*
X85580012Y-150839500D01*
X85382930Y-150839500D01*
X85382928Y-150839500D01*
X85189641Y-150877947D01*
X85189631Y-150877950D01*
X85007563Y-150953364D01*
X85007550Y-150953371D01*
X84843689Y-151062860D01*
X84843685Y-151062863D01*
X84704334Y-151202214D01*
X84704331Y-151202218D01*
X84594842Y-151366079D01*
X84594835Y-151366092D01*
X84519421Y-151548160D01*
X84519419Y-151548168D01*
X84480971Y-151741456D01*
X84480971Y-152288666D01*
X84461286Y-152355705D01*
X84408482Y-152401460D01*
X84339324Y-152411404D01*
X84294972Y-152396054D01*
X84273608Y-152383719D01*
X84169055Y-152355705D01*
X84127237Y-152344500D01*
X83975705Y-152344500D01*
X83829334Y-152383719D01*
X83698106Y-152459485D01*
X83698103Y-152459487D01*
X83590958Y-152566632D01*
X83590956Y-152566635D01*
X83515190Y-152697863D01*
X83482775Y-152818842D01*
X83475971Y-152844234D01*
X78846971Y-152844234D01*
X78807752Y-152697865D01*
X78731986Y-152566635D01*
X78624836Y-152459485D01*
X78541558Y-152411404D01*
X78493607Y-152383719D01*
X78408171Y-152360827D01*
X78347237Y-152344500D01*
X78195705Y-152344500D01*
X78049333Y-152383719D01*
X78027970Y-152396054D01*
X77960069Y-152412525D01*
X77894043Y-152389673D01*
X77850853Y-152334751D01*
X77841971Y-152288666D01*
X77841971Y-151741456D01*
X77803523Y-151548168D01*
X77803520Y-151548160D01*
X77728106Y-151366092D01*
X77728099Y-151366079D01*
X77618610Y-151202218D01*
X77618607Y-151202214D01*
X77479256Y-151062863D01*
X77479252Y-151062860D01*
X77315391Y-150953371D01*
X77315378Y-150953364D01*
X77133310Y-150877950D01*
X77133300Y-150877947D01*
X76940014Y-150839500D01*
X76940012Y-150839500D01*
X76742930Y-150839500D01*
X76742928Y-150839500D01*
X76549641Y-150877947D01*
X76549631Y-150877950D01*
X76367563Y-150953364D01*
X76367550Y-150953371D01*
X76203689Y-151062860D01*
X76203685Y-151062863D01*
X76064334Y-151202214D01*
X76064331Y-151202218D01*
X75954842Y-151366079D01*
X75954835Y-151366092D01*
X75879421Y-151548160D01*
X75879419Y-151548168D01*
X75840971Y-151741456D01*
X75840971Y-151741459D01*
X75840971Y-153038541D01*
X75840971Y-153038543D01*
X75840970Y-153038543D01*
X57624265Y-153038543D01*
X57651208Y-152973497D01*
X57681971Y-152818842D01*
X57681971Y-152661158D01*
X57681971Y-152661155D01*
X57681970Y-152661153D01*
X57663168Y-152566632D01*
X57651208Y-152506503D01*
X57651206Y-152506498D01*
X57590868Y-152360827D01*
X57590861Y-152360814D01*
X57503260Y-152229711D01*
X57503257Y-152229707D01*
X57391763Y-152118213D01*
X57391759Y-152118210D01*
X57260656Y-152030609D01*
X57260643Y-152030602D01*
X57114972Y-151970264D01*
X57114960Y-151970261D01*
X56960316Y-151939500D01*
X56960313Y-151939500D01*
X56802629Y-151939500D01*
X56802626Y-151939500D01*
X56647981Y-151970261D01*
X56647969Y-151970264D01*
X56502298Y-152030602D01*
X56502285Y-152030609D01*
X56370596Y-152118602D01*
X56303918Y-152139480D01*
X56301705Y-152139500D01*
X56021569Y-152139500D01*
X55954530Y-152119815D01*
X55933888Y-152103181D01*
X54908290Y-151077583D01*
X54874805Y-151016260D01*
X54871971Y-150989902D01*
X54871971Y-149491153D01*
X61210971Y-149491153D01*
X61210971Y-149648846D01*
X61241732Y-149803489D01*
X61241735Y-149803501D01*
X61302073Y-149949172D01*
X61302080Y-149949185D01*
X61389681Y-150080288D01*
X61389684Y-150080292D01*
X61501178Y-150191786D01*
X61501182Y-150191789D01*
X61632285Y-150279390D01*
X61632298Y-150279397D01*
X61777969Y-150339735D01*
X61777974Y-150339737D01*
X61932624Y-150370499D01*
X61932627Y-150370500D01*
X61932629Y-150370500D01*
X62090315Y-150370500D01*
X62090316Y-150370499D01*
X62244968Y-150339737D01*
X62390650Y-150279394D01*
X62390656Y-150279390D01*
X62522346Y-150191398D01*
X62589024Y-150170520D01*
X62591237Y-150170500D01*
X78131705Y-150170500D01*
X78198744Y-150190185D01*
X78200596Y-150191398D01*
X78332285Y-150279390D01*
X78332298Y-150279397D01*
X78477969Y-150339735D01*
X78477974Y-150339737D01*
X78632624Y-150370499D01*
X78632627Y-150370500D01*
X78632629Y-150370500D01*
X78790315Y-150370500D01*
X78790316Y-150370499D01*
X78944968Y-150339737D01*
X79090650Y-150279394D01*
X79221760Y-150191789D01*
X79333260Y-150080289D01*
X79420865Y-149949179D01*
X79481208Y-149803497D01*
X79511971Y-149648842D01*
X79511971Y-149491158D01*
X79511971Y-149491155D01*
X79511970Y-149491153D01*
X79481209Y-149336510D01*
X79481208Y-149336503D01*
X79481206Y-149336498D01*
X79420868Y-149190827D01*
X79420861Y-149190814D01*
X79333260Y-149059711D01*
X79333257Y-149059707D01*
X79221763Y-148948213D01*
X79221759Y-148948210D01*
X79090656Y-148860609D01*
X79090643Y-148860602D01*
X78944972Y-148800264D01*
X78944960Y-148800261D01*
X78790316Y-148769500D01*
X78790313Y-148769500D01*
X78632629Y-148769500D01*
X78632626Y-148769500D01*
X78477981Y-148800261D01*
X78477969Y-148800264D01*
X78332298Y-148860602D01*
X78332285Y-148860609D01*
X78200596Y-148948602D01*
X78133918Y-148969480D01*
X78131705Y-148969500D01*
X62591237Y-148969500D01*
X62524198Y-148949815D01*
X62522346Y-148948602D01*
X62390656Y-148860609D01*
X62390643Y-148860602D01*
X62244972Y-148800264D01*
X62244960Y-148800261D01*
X62090316Y-148769500D01*
X62090313Y-148769500D01*
X61932629Y-148769500D01*
X61932626Y-148769500D01*
X61777981Y-148800261D01*
X61777969Y-148800264D01*
X61632298Y-148860602D01*
X61632285Y-148860609D01*
X61501182Y-148948210D01*
X61501178Y-148948213D01*
X61389684Y-149059707D01*
X61389681Y-149059711D01*
X61302080Y-149190814D01*
X61302073Y-149190827D01*
X61241735Y-149336498D01*
X61241732Y-149336510D01*
X61210971Y-149491153D01*
X54871971Y-149491153D01*
X54871971Y-144830946D01*
X54871971Y-144830943D01*
X54870493Y-144825427D01*
X54872154Y-144755580D01*
X54887160Y-144724451D01*
X54970865Y-144599179D01*
X55031208Y-144453497D01*
X55061971Y-144298842D01*
X55061971Y-144141158D01*
X55061971Y-144141155D01*
X55061970Y-144141153D01*
X55031209Y-143986510D01*
X55031208Y-143986503D01*
X54993048Y-143894376D01*
X54970868Y-143840827D01*
X54970861Y-143840814D01*
X54883260Y-143709711D01*
X54883257Y-143709707D01*
X54771763Y-143598213D01*
X54771759Y-143598210D01*
X54640656Y-143510609D01*
X54640643Y-143510602D01*
X54494972Y-143450264D01*
X54494960Y-143450261D01*
X54340316Y-143419500D01*
X54340313Y-143419500D01*
X54182629Y-143419500D01*
X54182626Y-143419500D01*
X54027981Y-143450261D01*
X54027969Y-143450264D01*
X53882298Y-143510602D01*
X53882285Y-143510609D01*
X53751182Y-143598210D01*
X53751178Y-143598213D01*
X53639684Y-143709707D01*
X53639681Y-143709711D01*
X53552080Y-143840814D01*
X53552073Y-143840827D01*
X53491735Y-143986498D01*
X53491732Y-143986510D01*
X53460971Y-144141153D01*
X50139070Y-144141153D01*
X49921471Y-143923554D01*
X49675025Y-144170000D01*
X48767917Y-144170000D01*
X48521471Y-143923554D01*
X48275025Y-144170000D01*
X36317749Y-144170000D01*
X36317741Y-144118657D01*
X36317645Y-143496126D01*
X47771471Y-143496126D01*
X47771471Y-143643873D01*
X47800291Y-143788759D01*
X47800293Y-143788767D01*
X47843892Y-143894024D01*
X48167917Y-143570000D01*
X48167917Y-143569999D01*
X48148027Y-143550109D01*
X48421471Y-143550109D01*
X48421471Y-143589891D01*
X48436695Y-143626645D01*
X48464826Y-143654776D01*
X48501580Y-143670000D01*
X48541362Y-143670000D01*
X48578116Y-143654776D01*
X48606247Y-143626645D01*
X48621471Y-143589891D01*
X48621471Y-143569999D01*
X48875025Y-143569999D01*
X48875025Y-143570001D01*
X49199400Y-143894376D01*
X49243540Y-143894376D01*
X49567917Y-143570000D01*
X49548026Y-143550109D01*
X49821471Y-143550109D01*
X49821471Y-143589891D01*
X49836695Y-143626645D01*
X49864826Y-143654776D01*
X49901580Y-143670000D01*
X49941362Y-143670000D01*
X49978116Y-143654776D01*
X50006247Y-143626645D01*
X50021471Y-143589891D01*
X50021471Y-143569999D01*
X50275025Y-143569999D01*
X50275025Y-143570001D01*
X50599048Y-143894024D01*
X50599049Y-143894024D01*
X50642646Y-143788775D01*
X50642650Y-143788760D01*
X50671470Y-143643873D01*
X50671471Y-143643871D01*
X50671471Y-143496128D01*
X50671470Y-143496126D01*
X50642650Y-143351240D01*
X50642649Y-143351236D01*
X50599048Y-143245975D01*
X50275025Y-143569999D01*
X50021471Y-143569999D01*
X50021471Y-143550109D01*
X50006247Y-143513355D01*
X49978116Y-143485224D01*
X49941362Y-143470000D01*
X49901580Y-143470000D01*
X49864826Y-143485224D01*
X49836695Y-143513355D01*
X49821471Y-143550109D01*
X49548026Y-143550109D01*
X49243539Y-143245622D01*
X49199401Y-143245622D01*
X48875025Y-143569999D01*
X48621471Y-143569999D01*
X48621471Y-143550109D01*
X48606247Y-143513355D01*
X48578116Y-143485224D01*
X48541362Y-143470000D01*
X48501580Y-143470000D01*
X48464826Y-143485224D01*
X48436695Y-143513355D01*
X48421471Y-143550109D01*
X48148027Y-143550109D01*
X47843892Y-143245974D01*
X47843891Y-143245974D01*
X47800294Y-143351228D01*
X47800291Y-143351240D01*
X47771471Y-143496126D01*
X36317645Y-143496126D01*
X36317644Y-143490058D01*
X36317564Y-142970000D01*
X48275025Y-142970000D01*
X48521471Y-143216446D01*
X48767917Y-142970000D01*
X49675025Y-142970000D01*
X49921471Y-143216446D01*
X50167917Y-142970000D01*
X49921471Y-142723554D01*
X49675025Y-142970000D01*
X48767917Y-142970000D01*
X48521471Y-142723554D01*
X48275025Y-142970000D01*
X36317564Y-142970000D01*
X36317556Y-142918657D01*
X36317460Y-142296126D01*
X47771471Y-142296126D01*
X47771471Y-142443873D01*
X47800291Y-142588759D01*
X47800293Y-142588767D01*
X47843892Y-142694024D01*
X48167917Y-142370000D01*
X48167917Y-142369999D01*
X48148027Y-142350109D01*
X48421471Y-142350109D01*
X48421471Y-142389891D01*
X48436695Y-142426645D01*
X48464826Y-142454776D01*
X48501580Y-142470000D01*
X48541362Y-142470000D01*
X48578116Y-142454776D01*
X48606247Y-142426645D01*
X48621471Y-142389891D01*
X48621471Y-142369999D01*
X48875025Y-142369999D01*
X48875025Y-142370001D01*
X49199400Y-142694376D01*
X49243540Y-142694376D01*
X49567917Y-142370000D01*
X49548026Y-142350109D01*
X49821471Y-142350109D01*
X49821471Y-142389891D01*
X49836695Y-142426645D01*
X49864826Y-142454776D01*
X49901580Y-142470000D01*
X49941362Y-142470000D01*
X49978116Y-142454776D01*
X50006247Y-142426645D01*
X50021471Y-142389891D01*
X50021471Y-142369999D01*
X50275025Y-142369999D01*
X50275025Y-142370001D01*
X50599048Y-142694024D01*
X50599049Y-142694024D01*
X50642646Y-142588775D01*
X50642650Y-142588760D01*
X50671470Y-142443873D01*
X50671471Y-142443871D01*
X50671471Y-142296128D01*
X50671470Y-142296126D01*
X50642650Y-142151240D01*
X50642649Y-142151236D01*
X50599048Y-142045975D01*
X50275025Y-142369999D01*
X50021471Y-142369999D01*
X50021471Y-142350109D01*
X50006247Y-142313355D01*
X49978116Y-142285224D01*
X49941362Y-142270000D01*
X49901580Y-142270000D01*
X49864826Y-142285224D01*
X49836695Y-142313355D01*
X49821471Y-142350109D01*
X49548026Y-142350109D01*
X49243539Y-142045622D01*
X49199401Y-142045622D01*
X48875025Y-142369999D01*
X48621471Y-142369999D01*
X48621471Y-142350109D01*
X48606247Y-142313355D01*
X48578116Y-142285224D01*
X48541362Y-142270000D01*
X48501580Y-142270000D01*
X48464826Y-142285224D01*
X48436695Y-142313355D01*
X48421471Y-142350109D01*
X48148027Y-142350109D01*
X47843892Y-142045974D01*
X47843891Y-142045974D01*
X47800294Y-142151228D01*
X47800291Y-142151240D01*
X47771471Y-142296126D01*
X36317460Y-142296126D01*
X36317459Y-142290058D01*
X36317373Y-141733255D01*
X36317367Y-141692420D01*
X48197445Y-141692420D01*
X48197445Y-141692421D01*
X48521471Y-142016446D01*
X48521472Y-142016446D01*
X48845495Y-141692421D01*
X48845493Y-141692420D01*
X49597445Y-141692420D01*
X49597445Y-141692421D01*
X49921471Y-142016446D01*
X49921472Y-142016446D01*
X50245495Y-141692421D01*
X50140238Y-141648822D01*
X50140230Y-141648820D01*
X49995343Y-141620000D01*
X49847599Y-141620000D01*
X49702711Y-141648820D01*
X49702699Y-141648823D01*
X49597445Y-141692420D01*
X48845493Y-141692420D01*
X48740238Y-141648822D01*
X48740230Y-141648820D01*
X48595343Y-141620000D01*
X48447599Y-141620000D01*
X48302711Y-141648820D01*
X48302699Y-141648823D01*
X48197445Y-141692420D01*
X36317367Y-141692420D01*
X36316939Y-138909176D01*
X36316756Y-137719986D01*
X52906472Y-137719986D01*
X52916965Y-137822697D01*
X52972112Y-137989119D01*
X52972114Y-137989124D01*
X53064155Y-138138345D01*
X53188125Y-138262315D01*
X53337346Y-138354356D01*
X53337351Y-138354358D01*
X53503773Y-138409505D01*
X53503780Y-138409506D01*
X53606490Y-138419999D01*
X53931470Y-138419999D01*
X54431471Y-138419999D01*
X54756443Y-138419999D01*
X54756457Y-138419998D01*
X54859168Y-138409505D01*
X55025590Y-138354358D01*
X55025595Y-138354356D01*
X55174816Y-138262315D01*
X55298786Y-138138345D01*
X55390827Y-137989124D01*
X55390829Y-137989119D01*
X55445976Y-137822697D01*
X55445977Y-137822690D01*
X55456470Y-137719986D01*
X60866472Y-137719986D01*
X60876965Y-137822697D01*
X60932112Y-137989119D01*
X60932114Y-137989124D01*
X61024155Y-138138345D01*
X61148125Y-138262315D01*
X61297346Y-138354356D01*
X61297351Y-138354358D01*
X61463773Y-138409505D01*
X61463780Y-138409506D01*
X61566490Y-138419999D01*
X61891470Y-138419999D01*
X62391471Y-138419999D01*
X62716443Y-138419999D01*
X62716457Y-138419998D01*
X62819168Y-138409505D01*
X62985590Y-138354358D01*
X62985595Y-138354356D01*
X63134816Y-138262315D01*
X63258786Y-138138345D01*
X63350827Y-137989124D01*
X63350829Y-137989119D01*
X63405976Y-137822697D01*
X63405977Y-137822690D01*
X63416470Y-137719986D01*
X63416471Y-137719973D01*
X63416471Y-137520000D01*
X62391471Y-137520000D01*
X62391471Y-138419999D01*
X61891470Y-138419999D01*
X61891471Y-138419998D01*
X61891471Y-137520000D01*
X60866472Y-137520000D01*
X60866472Y-137719986D01*
X55456470Y-137719986D01*
X55456471Y-137719973D01*
X55456471Y-137520000D01*
X54431471Y-137520000D01*
X54431471Y-138419999D01*
X53931470Y-138419999D01*
X53931471Y-138419998D01*
X53931471Y-137520000D01*
X52906472Y-137520000D01*
X52906472Y-137719986D01*
X36316756Y-137719986D01*
X36316617Y-136820013D01*
X52906471Y-136820013D01*
X52906471Y-137020000D01*
X53931471Y-137020000D01*
X54431471Y-137020000D01*
X55456470Y-137020000D01*
X55456470Y-136820029D01*
X55456469Y-136820013D01*
X60866471Y-136820013D01*
X60866471Y-137020000D01*
X61891471Y-137020000D01*
X62391471Y-137020000D01*
X63416470Y-137020000D01*
X63416470Y-136820028D01*
X63416469Y-136820013D01*
X63405976Y-136717302D01*
X63350829Y-136550880D01*
X63350827Y-136550875D01*
X63258786Y-136401654D01*
X63134816Y-136277684D01*
X62985595Y-136185643D01*
X62985590Y-136185641D01*
X62819168Y-136130494D01*
X62819161Y-136130493D01*
X62716457Y-136120000D01*
X62391471Y-136120000D01*
X62391471Y-137020000D01*
X61891471Y-137020000D01*
X61891471Y-136120000D01*
X61566499Y-136120000D01*
X61566483Y-136120001D01*
X61463773Y-136130494D01*
X61297351Y-136185641D01*
X61297346Y-136185643D01*
X61148125Y-136277684D01*
X61024155Y-136401654D01*
X60932114Y-136550875D01*
X60932112Y-136550880D01*
X60876965Y-136717302D01*
X60876964Y-136717309D01*
X60866471Y-136820013D01*
X55456469Y-136820013D01*
X55456469Y-136820012D01*
X55445976Y-136717302D01*
X55390829Y-136550880D01*
X55390827Y-136550875D01*
X55298786Y-136401654D01*
X55174816Y-136277684D01*
X55025595Y-136185643D01*
X55025590Y-136185641D01*
X54859168Y-136130494D01*
X54859161Y-136130493D01*
X54756457Y-136120000D01*
X54431471Y-136120000D01*
X54431471Y-137020000D01*
X53931471Y-137020000D01*
X53931471Y-136120000D01*
X53606499Y-136120000D01*
X53606483Y-136120001D01*
X53503773Y-136130494D01*
X53337351Y-136185641D01*
X53337346Y-136185643D01*
X53188125Y-136277684D01*
X53064155Y-136401654D01*
X52972114Y-136550875D01*
X52972112Y-136550880D01*
X52916965Y-136717302D01*
X52916964Y-136717309D01*
X52906471Y-136820013D01*
X36316617Y-136820013D01*
X36316498Y-136046616D01*
X36313651Y-117533713D01*
X37820971Y-117533713D01*
X37820971Y-117746286D01*
X37854224Y-117956239D01*
X37919915Y-118158414D01*
X38016422Y-118347820D01*
X38141361Y-118519786D01*
X38291684Y-118670109D01*
X38463650Y-118795048D01*
X38463652Y-118795049D01*
X38463655Y-118795051D01*
X38653059Y-118891557D01*
X38855228Y-118957246D01*
X39065184Y-118990500D01*
X39065185Y-118990500D01*
X39277757Y-118990500D01*
X39277758Y-118990500D01*
X39487714Y-118957246D01*
X39689883Y-118891557D01*
X39879287Y-118795051D01*
X39901260Y-118779086D01*
X40051257Y-118670109D01*
X40051259Y-118670106D01*
X40051263Y-118670104D01*
X40201575Y-118519792D01*
X40201577Y-118519788D01*
X40201580Y-118519786D01*
X40326519Y-118347820D01*
X40326518Y-118347820D01*
X40326522Y-118347816D01*
X40423028Y-118158412D01*
X40488717Y-117956243D01*
X40521971Y-117746287D01*
X40521971Y-117533713D01*
X40488717Y-117323757D01*
X40423028Y-117121588D01*
X40326522Y-116932184D01*
X40326520Y-116932181D01*
X40326519Y-116932179D01*
X40201580Y-116760213D01*
X40051257Y-116609890D01*
X39879291Y-116484951D01*
X39689885Y-116388444D01*
X39689884Y-116388443D01*
X39689883Y-116388443D01*
X39487714Y-116322754D01*
X39487712Y-116322753D01*
X39487711Y-116322753D01*
X39326428Y-116297208D01*
X39277758Y-116289500D01*
X39065184Y-116289500D01*
X39016513Y-116297208D01*
X38855231Y-116322753D01*
X38653056Y-116388444D01*
X38463650Y-116484951D01*
X38291684Y-116609890D01*
X38141361Y-116760213D01*
X38016422Y-116932179D01*
X37919915Y-117121585D01*
X37854224Y-117323760D01*
X37820971Y-117533713D01*
X36313651Y-117533713D01*
X36313650Y-117528860D01*
X36313475Y-116388444D01*
X36300413Y-31473713D01*
X37840971Y-31473713D01*
X37840971Y-31686287D01*
X37874225Y-31896243D01*
X37884677Y-31928412D01*
X37939915Y-32098414D01*
X38036422Y-32287820D01*
X38161361Y-32459786D01*
X38311684Y-32610109D01*
X38483650Y-32735048D01*
X38483652Y-32735049D01*
X38483655Y-32735051D01*
X38673059Y-32831557D01*
X38875228Y-32897246D01*
X39085184Y-32930500D01*
X39085185Y-32930500D01*
X39297757Y-32930500D01*
X39297758Y-32930500D01*
X39507714Y-32897246D01*
X39709883Y-32831557D01*
X39899287Y-32735051D01*
X40000444Y-32661557D01*
X40071257Y-32610109D01*
X40071259Y-32610106D01*
X40071263Y-32610104D01*
X40221575Y-32459792D01*
X40221577Y-32459788D01*
X40221580Y-32459786D01*
X40346519Y-32287820D01*
X40346518Y-32287820D01*
X40346522Y-32287816D01*
X40443028Y-32098412D01*
X40508717Y-31896243D01*
X40541971Y-31686287D01*
X40541971Y-31473713D01*
X40517251Y-31317642D01*
X40515045Y-31303713D01*
X121990971Y-31303713D01*
X121990971Y-31516286D01*
X122017896Y-31686287D01*
X122024225Y-31726243D01*
X122079460Y-31896239D01*
X122089915Y-31928414D01*
X122186422Y-32117820D01*
X122311361Y-32289786D01*
X122461684Y-32440109D01*
X122633650Y-32565048D01*
X122633652Y-32565049D01*
X122633655Y-32565051D01*
X122823059Y-32661557D01*
X123025228Y-32727246D01*
X123235184Y-32760500D01*
X123235185Y-32760500D01*
X123447757Y-32760500D01*
X123447758Y-32760500D01*
X123657714Y-32727246D01*
X123859883Y-32661557D01*
X124049287Y-32565051D01*
X124194165Y-32459792D01*
X124221257Y-32440109D01*
X124221259Y-32440106D01*
X124221263Y-32440104D01*
X124371575Y-32289792D01*
X124371577Y-32289788D01*
X124371580Y-32289786D01*
X124496519Y-32117820D01*
X124496518Y-32117820D01*
X124496522Y-32117816D01*
X124593028Y-31928412D01*
X124658717Y-31726243D01*
X124691971Y-31516287D01*
X124691971Y-31303713D01*
X124658717Y-31093757D01*
X124593028Y-30891588D01*
X124496522Y-30702184D01*
X124496520Y-30702181D01*
X124496519Y-30702179D01*
X124371580Y-30530213D01*
X124221257Y-30379890D01*
X124049291Y-30254951D01*
X123859885Y-30158444D01*
X123859884Y-30158443D01*
X123859883Y-30158443D01*
X123657714Y-30092754D01*
X123657712Y-30092753D01*
X123657711Y-30092753D01*
X123496428Y-30067208D01*
X123447758Y-30059500D01*
X123235184Y-30059500D01*
X123186513Y-30067208D01*
X123025231Y-30092753D01*
X122823056Y-30158444D01*
X122633650Y-30254951D01*
X122461684Y-30379890D01*
X122311361Y-30530213D01*
X122186422Y-30702179D01*
X122089915Y-30891585D01*
X122024224Y-31093760D01*
X121990971Y-31303713D01*
X40515045Y-31303713D01*
X40508718Y-31263761D01*
X40508717Y-31263760D01*
X40508717Y-31263757D01*
X40443028Y-31061588D01*
X40346522Y-30872184D01*
X40346520Y-30872181D01*
X40346519Y-30872179D01*
X40221580Y-30700213D01*
X40071257Y-30549890D01*
X39899291Y-30424951D01*
X39709885Y-30328444D01*
X39709884Y-30328443D01*
X39709883Y-30328443D01*
X39507714Y-30262754D01*
X39507712Y-30262753D01*
X39507711Y-30262753D01*
X39346428Y-30237208D01*
X39297758Y-30229500D01*
X39085184Y-30229500D01*
X39036513Y-30237208D01*
X38875231Y-30262753D01*
X38673056Y-30328444D01*
X38483650Y-30424951D01*
X38311684Y-30549890D01*
X38161361Y-30700213D01*
X38036422Y-30872179D01*
X37939915Y-31061585D01*
X37874224Y-31263760D01*
X37840971Y-31473713D01*
X36300413Y-31473713D01*
X36300019Y-28914101D01*
X36319693Y-28847060D01*
X36372490Y-28801297D01*
X36424100Y-28790083D01*
X125545941Y-28849916D01*
G37*
%TD.AperFunction*%
%TA.AperFunction,Conductor*%
G36*
X123042915Y-76493999D02*
G01*
X123081955Y-76539054D01*
X123083028Y-76541158D01*
X123086422Y-76547820D01*
X123211361Y-76719786D01*
X123361684Y-76870109D01*
X123533650Y-76995048D01*
X123533652Y-76995049D01*
X123533655Y-76995051D01*
X123542964Y-76999794D01*
X123593761Y-77047766D01*
X123610558Y-77115587D01*
X123588023Y-77181722D01*
X123542976Y-77220760D01*
X123533917Y-77225376D01*
X123533911Y-77225380D01*
X123479753Y-77264727D01*
X123479753Y-77264728D01*
X124112062Y-77897037D01*
X124048478Y-77914075D01*
X123934464Y-77979901D01*
X123841372Y-78072993D01*
X123775546Y-78187007D01*
X123758508Y-78250591D01*
X123126199Y-77618282D01*
X123126198Y-77618282D01*
X123086851Y-77672440D01*
X123086847Y-77672446D01*
X123082231Y-77681505D01*
X123034252Y-77732297D01*
X122966430Y-77749087D01*
X122900297Y-77726543D01*
X122861265Y-77681493D01*
X122856522Y-77672184D01*
X122856520Y-77672181D01*
X122856519Y-77672179D01*
X122731580Y-77500213D01*
X122581257Y-77349890D01*
X122409291Y-77224951D01*
X122401071Y-77220763D01*
X122400525Y-77220485D01*
X122349730Y-77172512D01*
X122332934Y-77104692D01*
X122355470Y-77038556D01*
X122400525Y-76999515D01*
X122409287Y-76995051D01*
X122431260Y-76979086D01*
X122581257Y-76870109D01*
X122581264Y-76870103D01*
X122598614Y-76852753D01*
X122731575Y-76719792D01*
X122731577Y-76719788D01*
X122731580Y-76719786D01*
X122856519Y-76547820D01*
X122856518Y-76547820D01*
X122856522Y-76547816D01*
X122860985Y-76539054D01*
X122908959Y-76488259D01*
X122976779Y-76471463D01*
X123042915Y-76493999D01*
G37*
%TD.AperFunction*%
%TA.AperFunction,Conductor*%
G36*
X125577273Y-76540017D02*
G01*
X125611630Y-76600856D01*
X125614853Y-76629085D01*
X125613743Y-77590525D01*
X125593981Y-77657542D01*
X125541124Y-77703236D01*
X125471954Y-77713099D01*
X125408432Y-77684001D01*
X125389424Y-77663267D01*
X125356741Y-77618282D01*
X125356740Y-77618282D01*
X124724433Y-78250590D01*
X124707396Y-78187007D01*
X124641570Y-78072993D01*
X124548478Y-77979901D01*
X124434464Y-77914075D01*
X124370880Y-77897037D01*
X125003187Y-77264728D01*
X124949018Y-77225373D01*
X124949018Y-77225372D01*
X124939971Y-77220763D01*
X124889177Y-77172788D01*
X124872383Y-77104966D01*
X124894922Y-77038832D01*
X124939979Y-76999793D01*
X124949287Y-76995051D01*
X125028478Y-76937515D01*
X125121257Y-76870109D01*
X125121264Y-76870103D01*
X125138614Y-76852753D01*
X125271575Y-76719792D01*
X125390535Y-76556055D01*
X125445864Y-76513391D01*
X125515478Y-76507412D01*
X125577273Y-76540017D01*
G37*
%TD.AperFunction*%
%TA.AperFunction,Conductor*%
G36*
X125580209Y-73995975D02*
G01*
X125614566Y-74056813D01*
X125617789Y-74085043D01*
X125616671Y-75053703D01*
X125596909Y-75120720D01*
X125544052Y-75166414D01*
X125474882Y-75176277D01*
X125411360Y-75147179D01*
X125392353Y-75126445D01*
X125271580Y-74960213D01*
X125121257Y-74809890D01*
X124949291Y-74684951D01*
X124948586Y-74684591D01*
X124940525Y-74680485D01*
X124889730Y-74632512D01*
X124872934Y-74564692D01*
X124895470Y-74498556D01*
X124940525Y-74459515D01*
X124949287Y-74455051D01*
X124971260Y-74439086D01*
X125121257Y-74330109D01*
X125121259Y-74330106D01*
X125121263Y-74330104D01*
X125271575Y-74179792D01*
X125393472Y-74012012D01*
X125448800Y-73969349D01*
X125518413Y-73963370D01*
X125580209Y-73995975D01*
G37*
%TD.AperFunction*%
%TA.AperFunction,Conductor*%
G36*
X92576331Y-42488103D02*
G01*
X92596973Y-42504737D01*
X120367712Y-70275476D01*
X120401197Y-70336799D01*
X120397963Y-70401473D01*
X120384224Y-70443757D01*
X120350971Y-70653713D01*
X120350971Y-70866286D01*
X120384224Y-71076240D01*
X120443016Y-71257182D01*
X120445011Y-71327023D01*
X120408931Y-71386856D01*
X120346230Y-71417684D01*
X120325085Y-71419500D01*
X99721237Y-71419500D01*
X99654198Y-71399815D01*
X99652346Y-71398602D01*
X99520656Y-71310609D01*
X99520643Y-71310602D01*
X99374972Y-71250264D01*
X99374960Y-71250261D01*
X99220316Y-71219500D01*
X99220313Y-71219500D01*
X99062629Y-71219500D01*
X99062626Y-71219500D01*
X98907981Y-71250261D01*
X98907969Y-71250264D01*
X98762298Y-71310602D01*
X98762285Y-71310609D01*
X98631182Y-71398210D01*
X98631178Y-71398213D01*
X98519684Y-71509707D01*
X98519681Y-71509711D01*
X98432080Y-71640814D01*
X98432073Y-71640827D01*
X98371735Y-71786498D01*
X98371732Y-71786510D01*
X98340971Y-71941153D01*
X98340971Y-72098846D01*
X98371732Y-72253489D01*
X98371734Y-72253496D01*
X98391339Y-72300829D01*
X98398806Y-72370298D01*
X98367531Y-72432777D01*
X98307441Y-72468429D01*
X98252586Y-72469897D01*
X98200317Y-72459500D01*
X98200313Y-72459500D01*
X98042629Y-72459500D01*
X98042626Y-72459500D01*
X97887981Y-72490261D01*
X97887969Y-72490264D01*
X97742298Y-72550602D01*
X97742285Y-72550609D01*
X97611182Y-72638210D01*
X97611178Y-72638213D01*
X97499684Y-72749707D01*
X97499681Y-72749711D01*
X97412080Y-72880814D01*
X97412073Y-72880827D01*
X97351735Y-73026498D01*
X97351731Y-73026513D01*
X97351443Y-73027961D01*
X97351083Y-73028648D01*
X97349965Y-73032335D01*
X97349265Y-73032122D01*
X97319053Y-73089869D01*
X97258334Y-73124438D01*
X97188565Y-73120692D01*
X97142147Y-73091440D01*
X81592888Y-57542181D01*
X81559403Y-57480858D01*
X81564387Y-57411166D01*
X81606259Y-57355233D01*
X81671723Y-57330816D01*
X81680569Y-57330500D01*
X86111705Y-57330500D01*
X86178744Y-57350185D01*
X86180596Y-57351398D01*
X86312285Y-57439390D01*
X86312298Y-57439397D01*
X86455683Y-57498788D01*
X86457974Y-57499737D01*
X86607974Y-57529574D01*
X86612624Y-57530499D01*
X86612627Y-57530500D01*
X86612629Y-57530500D01*
X86770315Y-57530500D01*
X86770316Y-57530499D01*
X86924968Y-57499737D01*
X87070650Y-57439394D01*
X87201760Y-57351789D01*
X87313260Y-57240289D01*
X87400865Y-57109179D01*
X87461208Y-56963497D01*
X87491971Y-56808842D01*
X87491971Y-56651158D01*
X87491971Y-56651155D01*
X87491970Y-56651153D01*
X87461209Y-56496510D01*
X87461208Y-56496503D01*
X87456776Y-56485804D01*
X87400868Y-56350827D01*
X87400861Y-56350814D01*
X87313260Y-56219711D01*
X87313257Y-56219707D01*
X87201763Y-56108213D01*
X87201759Y-56108210D01*
X87070656Y-56020609D01*
X87070643Y-56020602D01*
X86924972Y-55960264D01*
X86924960Y-55960261D01*
X86770316Y-55929500D01*
X86770313Y-55929500D01*
X86612629Y-55929500D01*
X86612626Y-55929500D01*
X86457981Y-55960261D01*
X86457969Y-55960264D01*
X86312298Y-56020602D01*
X86312285Y-56020609D01*
X86180596Y-56108602D01*
X86113918Y-56129480D01*
X86111705Y-56129500D01*
X79459611Y-56129500D01*
X79459595Y-56129499D01*
X79451999Y-56129499D01*
X79293885Y-56129499D01*
X79186529Y-56158265D01*
X79141152Y-56170424D01*
X79141151Y-56170425D01*
X79091038Y-56199359D01*
X79091037Y-56199360D01*
X79060011Y-56217273D01*
X79004227Y-56249479D01*
X79004224Y-56249481D01*
X78892420Y-56361286D01*
X66617546Y-68636161D01*
X66556223Y-68669646D01*
X66554057Y-68670097D01*
X66398715Y-68700997D01*
X66398705Y-68701000D01*
X66253034Y-68761338D01*
X66253021Y-68761345D01*
X66121918Y-68848946D01*
X66121914Y-68848949D01*
X66010420Y-68960443D01*
X66010417Y-68960447D01*
X65922816Y-69091550D01*
X65922809Y-69091563D01*
X65862471Y-69237234D01*
X65862468Y-69237244D01*
X65831569Y-69392584D01*
X65799184Y-69454495D01*
X65797633Y-69456073D01*
X63960952Y-71292753D01*
X63960948Y-71292758D01*
X63921839Y-71360499D01*
X63921839Y-71360500D01*
X63881894Y-71429685D01*
X63840970Y-71582414D01*
X63840970Y-71750517D01*
X63840971Y-71750530D01*
X63840971Y-74030234D01*
X63821286Y-74097273D01*
X63820073Y-74099125D01*
X63732080Y-74230814D01*
X63732073Y-74230827D01*
X63671735Y-74376498D01*
X63671732Y-74376510D01*
X63640971Y-74531153D01*
X63640971Y-74688846D01*
X63671732Y-74843489D01*
X63671735Y-74843501D01*
X63727466Y-74978048D01*
X63734935Y-75047517D01*
X63703660Y-75109996D01*
X63643571Y-75145648D01*
X63612905Y-75149500D01*
X63305971Y-75149500D01*
X63238932Y-75129815D01*
X63193177Y-75077011D01*
X63181971Y-75025500D01*
X63181971Y-55041230D01*
X63201656Y-54974191D01*
X63254460Y-54928436D01*
X63323618Y-54918492D01*
X63387174Y-54947517D01*
X63393652Y-54953549D01*
X65912294Y-57472190D01*
X65945779Y-57533513D01*
X65946230Y-57535679D01*
X65955575Y-57582660D01*
X65955578Y-57582670D01*
X66023454Y-57746540D01*
X66023461Y-57746553D01*
X66122006Y-57894034D01*
X66122009Y-57894038D01*
X66247432Y-58019461D01*
X66247436Y-58019464D01*
X66394917Y-58118009D01*
X66394930Y-58118016D01*
X66517834Y-58168923D01*
X66558805Y-58185894D01*
X66558807Y-58185894D01*
X66558812Y-58185896D01*
X66732775Y-58220499D01*
X66732778Y-58220500D01*
X66732780Y-58220500D01*
X66910164Y-58220500D01*
X66910165Y-58220499D01*
X66968153Y-58208964D01*
X67084129Y-58185896D01*
X67084132Y-58185894D01*
X67084137Y-58185894D01*
X67248018Y-58118013D01*
X67395506Y-58019464D01*
X67520935Y-57894035D01*
X67619484Y-57746547D01*
X67687365Y-57582666D01*
X67689786Y-57570499D01*
X67715864Y-57439394D01*
X67721971Y-57408691D01*
X67721971Y-57231309D01*
X67721971Y-57231306D01*
X67721970Y-57231304D01*
X67687367Y-57057341D01*
X67687364Y-57057332D01*
X67655666Y-56980805D01*
X67648197Y-56911336D01*
X67679473Y-56848857D01*
X67739562Y-56813205D01*
X67809387Y-56815699D01*
X67857908Y-56845672D01*
X68346610Y-57334374D01*
X68346620Y-57334385D01*
X68350950Y-57338715D01*
X68350951Y-57338716D01*
X68462755Y-57450520D01*
X68548002Y-57499737D01*
X68548003Y-57499738D01*
X68599680Y-57529574D01*
X68599681Y-57529574D01*
X68599686Y-57529577D01*
X68752413Y-57570500D01*
X68752414Y-57570500D01*
X71901705Y-57570500D01*
X71968744Y-57590185D01*
X71970596Y-57591398D01*
X72102285Y-57679390D01*
X72102298Y-57679397D01*
X72247969Y-57739735D01*
X72247974Y-57739737D01*
X72402624Y-57770499D01*
X72402627Y-57770500D01*
X72402629Y-57770500D01*
X72560315Y-57770500D01*
X72560316Y-57770499D01*
X72714968Y-57739737D01*
X72860650Y-57679394D01*
X72991760Y-57591789D01*
X73103260Y-57480289D01*
X73113065Y-57465613D01*
X73166676Y-57420809D01*
X73236001Y-57412102D01*
X73263619Y-57419944D01*
X73373880Y-57465615D01*
X73407974Y-57479737D01*
X73562624Y-57510499D01*
X73562627Y-57510500D01*
X73562629Y-57510500D01*
X73720315Y-57510500D01*
X73720316Y-57510499D01*
X73874968Y-57479737D01*
X74020650Y-57419394D01*
X74151760Y-57331789D01*
X74263260Y-57220289D01*
X74281686Y-57192711D01*
X74335298Y-57147907D01*
X74404623Y-57139199D01*
X74467651Y-57169353D01*
X74487891Y-57192711D01*
X74519681Y-57240288D01*
X74519684Y-57240292D01*
X74631178Y-57351786D01*
X74631182Y-57351789D01*
X74762285Y-57439390D01*
X74762298Y-57439397D01*
X74905683Y-57498788D01*
X74907974Y-57499737D01*
X75057974Y-57529574D01*
X75062624Y-57530499D01*
X75062627Y-57530500D01*
X75062629Y-57530500D01*
X75220315Y-57530500D01*
X75220316Y-57530499D01*
X75374968Y-57499737D01*
X75520650Y-57439394D01*
X75651760Y-57351789D01*
X75763260Y-57240289D01*
X75850865Y-57109179D01*
X75911208Y-56963497D01*
X75941971Y-56808842D01*
X75941971Y-56651158D01*
X75941971Y-56651155D01*
X75941970Y-56651153D01*
X75911209Y-56496510D01*
X75911208Y-56496503D01*
X75906776Y-56485804D01*
X75850868Y-56350827D01*
X75850861Y-56350814D01*
X75762869Y-56219125D01*
X75741991Y-56152447D01*
X75741971Y-56150234D01*
X75741971Y-45361230D01*
X75761656Y-45294191D01*
X75814460Y-45248436D01*
X75883618Y-45238492D01*
X75947174Y-45267517D01*
X75953652Y-45273549D01*
X79433057Y-48752954D01*
X79458960Y-48770261D01*
X79506739Y-48802184D01*
X79506741Y-48802187D01*
X79506742Y-48802187D01*
X79555967Y-48835079D01*
X79555982Y-48835087D01*
X79612550Y-48858518D01*
X79612551Y-48858518D01*
X79692559Y-48891659D01*
X79807385Y-48914499D01*
X79826041Y-48918210D01*
X79837552Y-48920500D01*
X79837553Y-48920500D01*
X79837554Y-48920500D01*
X79985389Y-48920500D01*
X91726201Y-48920500D01*
X91793240Y-48940185D01*
X91795093Y-48941399D01*
X91834918Y-48968010D01*
X91834921Y-48968011D01*
X91834924Y-48968013D01*
X91998805Y-49035894D01*
X91998807Y-49035894D01*
X91998812Y-49035896D01*
X92172775Y-49070499D01*
X92172778Y-49070500D01*
X92172780Y-49070500D01*
X92350164Y-49070500D01*
X92350165Y-49070499D01*
X92408153Y-49058964D01*
X92524129Y-49035896D01*
X92524132Y-49035894D01*
X92524137Y-49035894D01*
X92688018Y-48968013D01*
X92835506Y-48869464D01*
X92960935Y-48744035D01*
X93059484Y-48596547D01*
X93127365Y-48432666D01*
X93161971Y-48258691D01*
X93161971Y-48081309D01*
X93161971Y-48081306D01*
X93161970Y-48081304D01*
X93127367Y-47907341D01*
X93127364Y-47907332D01*
X93059487Y-47743459D01*
X93059480Y-47743446D01*
X92960935Y-47595965D01*
X92960932Y-47595961D01*
X92835509Y-47470538D01*
X92835505Y-47470535D01*
X92688024Y-47371990D01*
X92688011Y-47371983D01*
X92524138Y-47304106D01*
X92524129Y-47304103D01*
X92350165Y-47269500D01*
X92350162Y-47269500D01*
X92172780Y-47269500D01*
X92172777Y-47269500D01*
X91998812Y-47304103D01*
X91998803Y-47304106D01*
X91834923Y-47371987D01*
X91834918Y-47371989D01*
X91795093Y-47398601D01*
X91728416Y-47419480D01*
X91726201Y-47419500D01*
X80273701Y-47419500D01*
X80206662Y-47399815D01*
X80186020Y-47383181D01*
X75630932Y-42828093D01*
X75597447Y-42766770D01*
X75602431Y-42697078D01*
X75644303Y-42641145D01*
X75671151Y-42625855D01*
X75759179Y-42589394D01*
X75890289Y-42501789D01*
X75890293Y-42501784D01*
X75894999Y-42497924D01*
X75896490Y-42499741D01*
X75948665Y-42471252D01*
X75975023Y-42468418D01*
X92509292Y-42468418D01*
X92576331Y-42488103D01*
G37*
%TD.AperFunction*%
%TA.AperFunction,Conductor*%
G36*
X125555520Y-71978365D02*
G01*
X125604926Y-72027769D01*
X125620095Y-72087341D01*
X125619598Y-72517732D01*
X125599836Y-72584749D01*
X125546979Y-72630443D01*
X125477809Y-72640306D01*
X125414287Y-72611208D01*
X125395281Y-72590477D01*
X125271575Y-72420208D01*
X125158040Y-72306673D01*
X125124555Y-72245350D01*
X125129539Y-72175658D01*
X125171411Y-72119725D01*
X125202386Y-72102810D01*
X125333802Y-72053796D01*
X125421786Y-71987930D01*
X125487247Y-71963514D01*
X125555520Y-71978365D01*
G37*
%TD.AperFunction*%
%TD*%
M02*
