%TF.GenerationSoftware,KiCad,Pcbnew,10.0.5-1.fc44*%
%TF.CreationDate,2026-08-07T17:31:11+02:00*%
%TF.ProjectId,evereader,65766572-6561-4646-9572-2e6b69636164,rev?*%
%TF.SameCoordinates,Original*%
%TF.FileFunction,Soldermask,Bot*%
%TF.FilePolarity,Negative*%
%FSLAX46Y46*%
G04 Gerber Fmt 4.6, Leading zero omitted, Abs format (unit mm)*
G04 Created by KiCad (PCBNEW 10.0.5-1.fc44) date 2026-08-07 17:31:11*
%MOMM*%
%LPD*%
G01*
G04 APERTURE LIST*
G04 Aperture macros list*
%AMRoundRect*
0 Rectangle with rounded corners*
0 $1 Rounding radius*
0 $2 $3 $4 $5 $6 $7 $8 $9 X,Y pos of 4 corners*
0 Add a 4 corners polygon primitive as box body*
4,1,4,$2,$3,$4,$5,$6,$7,$8,$9,$2,$3,0*
0 Add four circle primitives for the rounded corners*
1,1,$1+$1,$2,$3*
1,1,$1+$1,$4,$5*
1,1,$1+$1,$6,$7*
1,1,$1+$1,$8,$9*
0 Add four rect primitives between the rounded corners*
20,1,$1+$1,$2,$3,$4,$5,0*
20,1,$1+$1,$4,$5,$6,$7,0*
20,1,$1+$1,$6,$7,$8,$9,0*
20,1,$1+$1,$8,$9,$2,$3,0*%
G04 Aperture macros list end*
%ADD10R,1.700000X1.700000*%
%ADD11C,1.700000*%
%ADD12C,2.200000*%
%ADD13C,0.500000*%
%ADD14C,0.650000*%
%ADD15O,1.000000X2.100000*%
%ADD16O,1.000000X1.600000*%
%ADD17RoundRect,0.250000X0.525000X0.400000X-0.525000X0.400000X-0.525000X-0.400000X0.525000X-0.400000X0*%
G04 APERTURE END LIST*
D10*
%TO.C,B-   B+*%
X138260000Y-123490000D03*
D11*
X140800000Y-123490000D03*
%TD*%
D10*
%TO.C,L_SCREEN*%
X132300000Y-70760000D03*
D11*
X134840000Y-70760000D03*
X132300000Y-73300000D03*
X134840000Y-73300000D03*
X132300000Y-75840000D03*
X134840000Y-75840000D03*
X132300000Y-78380000D03*
X134840000Y-78380000D03*
%TD*%
D12*
%TO.C,REF\u002A\u002A*%
X133160000Y-117620000D03*
%TD*%
%TO.C,REF\u002A\u002A*%
X217330000Y-31390000D03*
%TD*%
D13*
%TO.C,REF\u002A\u002A*%
X127400000Y-37100000D03*
X128900000Y-37100000D03*
X127400000Y-36250000D03*
X128900000Y-36250000D03*
X127400000Y-35400000D03*
X128900000Y-35400000D03*
X127400000Y-34550000D03*
X128900000Y-34550000D03*
X127400000Y-33700000D03*
X128900000Y-33700000D03*
X127400000Y-32850000D03*
X128900000Y-32850000D03*
X127400000Y-32000000D03*
X128900000Y-32000000D03*
%TD*%
D12*
%TO.C,REF\u002A\u002A*%
X123341471Y-31410000D03*
%TD*%
D13*
%TO.C,REF\u002A\u002A*%
X127400000Y-115533333D03*
X128900000Y-115533333D03*
X127400000Y-114683333D03*
X128900000Y-114683333D03*
X127400000Y-113833333D03*
X128900000Y-113833333D03*
X127400000Y-112983333D03*
X128900000Y-112983333D03*
X127400000Y-112133333D03*
X128900000Y-112133333D03*
X127400000Y-111283333D03*
X128900000Y-111283333D03*
X127400000Y-110433333D03*
X128900000Y-110433333D03*
%TD*%
D12*
%TO.C,REF\u002A\u002A*%
X217340000Y-156550000D03*
%TD*%
%TO.C,REF\u002A\u002A*%
X39171471Y-117640000D03*
%TD*%
%TO.C,REF\u002A\u002A*%
X123351471Y-156570000D03*
%TD*%
%TO.C,REF\u002A\u002A*%
X39171471Y-156570000D03*
%TD*%
%TO.C,REF\u002A\u002A*%
X133160000Y-156550000D03*
%TD*%
D14*
%TO.C,J1*%
X78271471Y-152920000D03*
X84051471Y-152920000D03*
D15*
X76841471Y-152390000D03*
D16*
X76841471Y-156570000D03*
D15*
X85481471Y-152390000D03*
D16*
X85481471Y-156570000D03*
%TD*%
D12*
%TO.C,REF\u002A\u002A*%
X123351471Y-117640000D03*
%TD*%
%TO.C,REF\u002A\u002A*%
X133180000Y-31560000D03*
%TD*%
D13*
%TO.C,REF\u002A\u002A*%
X127400000Y-154750000D03*
X128900000Y-154750000D03*
X127400000Y-153900000D03*
X128900000Y-153900000D03*
X127400000Y-153050000D03*
X128900000Y-153050000D03*
X127400000Y-152200000D03*
X128900000Y-152200000D03*
X127400000Y-151350000D03*
X128900000Y-151350000D03*
X127400000Y-150500000D03*
X128900000Y-150500000D03*
X127400000Y-149650000D03*
X128900000Y-149650000D03*
%TD*%
D12*
%TO.C,REF\u002A\u002A*%
X217340000Y-117620000D03*
%TD*%
%TO.C,REF\u002A\u002A*%
X39191471Y-31580000D03*
%TD*%
D13*
%TO.C,REF\u002A\u002A*%
X127400000Y-76316667D03*
X128900000Y-76316667D03*
X127400000Y-75466667D03*
X128900000Y-75466667D03*
X127400000Y-74616667D03*
X128900000Y-74616667D03*
X127400000Y-73766667D03*
X128900000Y-73766667D03*
X127400000Y-72916667D03*
X128900000Y-72916667D03*
X127400000Y-72066667D03*
X128900000Y-72066667D03*
X127400000Y-71216667D03*
X128900000Y-71216667D03*
%TD*%
D17*
%TO.C,SW2*%
X62141471Y-132770000D03*
X54181471Y-132770000D03*
X62141471Y-137270000D03*
X54181471Y-137270000D03*
%TD*%
%TO.C,SW1*%
X85141471Y-132770000D03*
X77181471Y-132770000D03*
X85141471Y-137270000D03*
X77181471Y-137270000D03*
%TD*%
%TO.C,SW3*%
X108141471Y-132770000D03*
X100181471Y-132770000D03*
X108141471Y-137270000D03*
X100181471Y-137270000D03*
%TD*%
D10*
%TO.C,R_SCREEN*%
X124241471Y-70760000D03*
D11*
X121701471Y-70760000D03*
X124241471Y-73300000D03*
X121701471Y-73300000D03*
X124241471Y-75840000D03*
X121701471Y-75840000D03*
X124241471Y-78380000D03*
X121701471Y-78380000D03*
%TD*%
M02*
